<svg xmlns="http://www.w3.org/2000/svg" viewBox="0 0 377.56 94.58"><defs><style>.cls-1{fill:#24ddd8;}</style></defs><title>Logo Green</title><g id="Layer_2" data-name="Layer 2"><g id="Layer_1-2" data-name="Layer 1"><path class="cls-1" d="M145.23,43q-1.18,4.77-2.47,9.51T139.94,62a77.29,77.29,0,0,1-3.51,8.88,76.26,76.26,0,0,0,3.45-9q1.49-4.65,2.66-9.4c.78-3.16,1.56-6.33,2.31-9.51s1.59-6.34,2.54-9.49c0-.1.11-.28.19-.51a1.64,1.64,0,0,0,.14-.47c0-.14,0-.39-.05-.71a8.54,8.54,0,0,0-.17-1,2.75,2.75,0,0,0-.35-.88.69.69,0,0,0-.58-.38,1.13,1.13,0,0,0-.85.49,5.81,5.81,0,0,0-.74,1.18,13.26,13.26,0,0,0-.57,1.37c-.17.46-.28.81-.36,1.07l-.49-.33q-1,3.61-1.87,7.29c-.54,2.45-1.17,4.88-1.86,7.29-.63,2.86-1.37,5.65-2.25,8.39-.66,2.09-1.41,4.11-2.25,6.09q1.21-3,2.14-6.09c.84-2.77,1.62-5.57,2.36-8.39.62-2.48,1.18-5,1.7-7.42s1.06-5,1.64-7.49L143,32.9c-.33,0-.66.49-1,1.48s-.64,2.11-.93,3.37-.55,2.48-.77,3.65-.38,1.93-.49,2.3L136.76,55a73.18,73.18,0,0,1-3.95,11c-.52-.88-1-1.76-1.4-2.66s-.84-1.78-1.29-2.66c-.29-.55-.76-1.56-1.42-3s-1.42-3.14-2.28-5l-2.68-5.87c-.94-2-1.81-3.88-2.64-5.57s-1.56-3.06-2.22-4.16-1.11-1.65-1.37-1.65a.51.51,0,0,0-.44.28,2.23,2.23,0,0,0-.24.63,3,3,0,0,0-.08.74v.43a13.77,13.77,0,0,0,.16,2.15c.11.69.26,1.39.44,2.08l-.49.33c0-.11-.13-.37-.25-.77a9.31,9.31,0,0,0-.47-1.2,8.64,8.64,0,0,0-.57-1.1c-.21-.33-.41-.49-.63-.49a1.18,1.18,0,0,0-.58.16l-.69.38c.66,2,1.3,4,1.92,6a50.58,50.58,0,0,0,2.25,5.86,33.36,33.36,0,0,0,1.53,3c.7,1.23,1.47,2.57,2.31,4.06s1.71,3,2.6,4.63,1.73,3.2,2.5,4.77L127,67c.25.58.53,1.22.85,1.92s.62,1.41.93,2.13.62,1.46.93,2.18.58,1.36.8,1.94a19.2,19.2,0,0,0,2.22.19q1.07,0,2.22,0v-.16q2.4-4.45,4.28-8.94l-1.54,4.38c.48-1.09,1-2.43,1.7-4s1.29-3.25,1.89-4.8l1.57-4.08a12.09,12.09,0,0,0,.65-2l-.38.77c-.41.84-.79,1.7-1.15,2.58s-.71,1.75-1,2.63a112.41,112.41,0,0,0,3.12-11.52h.5c.32-1.35.69-2.71,1.09-4.08s.77-2.75,1.1-4.14.6-2.78.82-4.17a26.89,26.89,0,0,0,.33-4.22Q146.41,38.28,145.23,43ZM128.31,71.19a20.09,20.09,0,0,0-1.25-2.55c.28.85.61,1.77,1,2.77s.69,1.84,1,2.5A10.44,10.44,0,0,0,128.31,71.19Zm1.43,3.57A4.56,4.56,0,0,1,129,74c.14.33.26.63.35.91s.18.5.25.68l.88.11A4.68,4.68,0,0,0,129.74,74.76Zm7.07-2L135.5,75.5h-1.87a9.5,9.5,0,0,0-1,0h1.54a11.36,11.36,0,0,1,1.53.11L137,72.75Zm.33-.79a6.84,6.84,0,0,1-.33.74H137l.66-2C137.47,71.2,137.29,71.61,137.14,72Z"/><path class="cls-1" d="M175.65,44.63A6.06,6.06,0,0,0,174,42.57a6.63,6.63,0,0,0-2.19-1.17,7.72,7.72,0,0,0-2.36-.39A19.45,19.45,0,0,0,162,42.63a24.73,24.73,0,0,0-7.19,4.63A20.1,20.1,0,0,0,151,53.84a22.36,22.36,0,0,0-1.2,7.19,18,18,0,0,0,1.36,7,23.76,23.76,0,0,1-.9-3.43,19.93,19.93,0,0,1-.3-3.42,23,23,0,0,1,1-6.5,18.17,18.17,0,0,1,8.89-10.86,21.88,21.88,0,0,1,8.55-2.44l.22.17a19.78,19.78,0,0,0-4.6,1.17c-1.32.53-2.64,1.13-3.95,1.78-.51.26-1.05.55-1.62.86a13.35,13.35,0,0,0-1.61,1,14.07,14.07,0,0,0-1.4,1.19,5.11,5.11,0,0,0-1,1.2l-1.31,1.81A24.07,24.07,0,0,0,151,55.43a18.15,18.15,0,0,0-.79,5.38,17.16,17.16,0,0,0,.41,3.78A16.11,16.11,0,0,0,152,68.32l-.49.43A16.72,16.72,0,0,0,153.65,72a15,15,0,0,0,2.81,2.66,13.23,13.23,0,0,0,3.4,1.76,12.35,12.35,0,0,0,3.93.63,8.32,8.32,0,0,0,4.66-1.37,15.22,15.22,0,0,1-3.68.49,12.59,12.59,0,0,1-6.33-1.48,13.65,13.65,0,0,1-4.25-3.7,15,15,0,0,1-2.38-4.82,17.78,17.78,0,0,1-.75-4.91,21.53,21.53,0,0,1,.34-3.76,18.89,18.89,0,0,1,1-3.78,18.14,18.14,0,0,1,1.75-3.43,11.31,11.31,0,0,1,2.41-2.74,13.53,13.53,0,0,0-2.35,2.86,15.38,15.38,0,0,0-1.7,3.42,22.57,22.57,0,0,0-1,3.73,21.22,21.22,0,0,0-.33,3.64,16.56,16.56,0,0,0,1,5.68,14.06,14.06,0,0,0,2.72,4.63,12.65,12.65,0,0,0,4.22,3.12,12.88,12.88,0,0,0,5.53,1.16l1.92-.14a13.79,13.79,0,0,0,3.18-.79,6.16,6.16,0,0,0,1.16-1.54A3.12,3.12,0,0,0,171.3,72c0-.36-.08-.57-.22-.63a1.54,1.54,0,0,0-.5-.08,2.46,2.46,0,0,0-.76.2c-.37.12-.74.27-1.13.43l-1.12.49a4,4,0,0,1-.77.3.41.41,0,0,1-.27-.43,2.3,2.3,0,0,1,.11-.38,12.86,12.86,0,0,1-1.92.16,12.41,12.41,0,0,1-3.46-.52,7,7,0,0,1-3-1.78,12.28,12.28,0,0,0,2.63,1.45,9,9,0,0,0,3.46.63c.4,0,.79,0,1.18,0a6.16,6.16,0,0,0,1.12-.22.54.54,0,0,0-.25-.53,2.07,2.07,0,0,0-.76-.16l-1.29-.06a9.51,9.51,0,0,1-1.81-.24,6.26,6.26,0,0,1-2.88-1.07,7.2,7.2,0,0,1-2-2.12,9.1,9.1,0,0,1-1.12-2.76,13.28,13.28,0,0,1-.36-3.1q0-.76,0-1.56a8.51,8.51,0,0,1,.24-1.67,26.3,26.3,0,0,1,3.16.91,30.75,30.75,0,0,0,3.7,1h1.8A8.46,8.46,0,0,0,170,58.86a13,13,0,0,0,3.48-3.4,15.74,15.74,0,0,0,2.11-4.14,11.74,11.74,0,0,0,.72-3.62A6.8,6.8,0,0,0,175.65,44.63ZM157.37,68.81c.26.29.52.58.77.88a5.71,5.71,0,0,1-1.31-1.64A5.65,5.65,0,0,0,157.37,68.81Zm2.44-11.9a.51.51,0,0,1-.14.33L157,56.42l.27-.77,2.58.93A2.48,2.48,0,0,1,159.81,56.91Zm9.63-8.66a7.85,7.85,0,0,1-.86,2.25,6.8,6.8,0,0,1-1.31,1.64,6.39,6.39,0,0,1-1.48,1,2.91,2.91,0,0,1-1.29.36,5.68,5.68,0,0,1-1.1-.11l-1.2-.22-1.56-.24-1.62-.3a5.2,5.2,0,0,1,2-1.84,19.37,19.37,0,0,1,3.07-1.48,27.75,27.75,0,0,1,3.18-1,10.84,10.84,0,0,1,2.31-.38Z"/><path class="cls-1" d="M202.91,46.8a7.83,7.83,0,0,0-.47-1,4.73,4.73,0,0,0-.6-.85.91.91,0,0,0-.6-.36.48.48,0,0,1,.19-.41,2,2,0,0,1,.46-.24,10.27,10.27,0,0,0-3-1.89,9.28,9.28,0,0,0-3.68-.75,7.4,7.4,0,0,0-2.68.39,13.28,13.28,0,0,0-1.92,1,16.46,16.46,0,0,1,1.86-1.09,6,6,0,0,1,2.8-.5,10,10,0,0,1,3.73.72,9.83,9.83,0,0,1,3.23,2.08.43.43,0,0,0,.33-.44l-.33-.55a4,4,0,0,0-1.07-1.18,8.12,8.12,0,0,0-2.22-1.15,10.78,10.78,0,0,0-3.67-.52,7.88,7.88,0,0,0-5,1.45,12.78,12.78,0,0,0-3.37,4.25c-.26-.62-.55-1.29-.86-2s-.62-1.38-.95-2a12.12,12.12,0,0,0-.94-1.54c-.29-.4-.53-.6-.71-.6s-.23.06-.24.17a.93.93,0,0,0,0,.27,5.63,5.63,0,0,0,.19,1.29l.41,1.78c.15.66.29,1.34.44,2.06a13.81,13.81,0,0,1,.27,2,1.25,1.25,0,0,0-.33.08,1.25,1.25,0,0,1-.33.08,10.83,10.83,0,0,0-.71-2.6q-.33-.63-.6-.63a1.55,1.55,0,0,0-.6.13l-.72.3a23.85,23.85,0,0,1,.77,3.24,20.62,20.62,0,0,1,.27,3.34c0,.22,0,.44,0,.66s0,.44,0,.66c.18.87.32,1.7.41,2.47s.17,1.52.24,2.24l.23,2.15q.1,1,.27,2.19a26.88,26.88,0,0,0,.77,3.45,15.9,15.9,0,0,1,.6,3.18l.28,5.16v1l.22,1a2.64,2.64,0,0,0,.68-.33,4.31,4.31,0,0,1,2-.33h1.59a5.73,5.73,0,0,0,1.21-.11l1.37-.55-.33-3.13-.17-1c-.11-1.25-.25-2.39-.44-3.43s-.35-2.06-.51-3-.3-2-.41-3a25.76,25.76,0,0,1-.17-3.12,26.23,26.23,0,0,1,.28-4A10.32,10.32,0,0,1,190.9,51a9,9,0,0,0-.52,1.57,18.79,18.79,0,0,0-.44,3c0,1.17,0,2.24.11,3.2s.14,2.08.22,3.32l.11,1.59-.66-1.7a20.8,20.8,0,0,1-.41-2.24,18.51,18.51,0,0,1-.14-2.47,16.41,16.41,0,0,1,.58-4.41,15.05,15.05,0,0,1,1.5-3.7L192,49c.18-.3.36-.61.52-.94a5,5,0,0,1,.55-.9,2.72,2.72,0,0,1,.74-.69,1.94,1.94,0,0,1,1-.27,8.44,8.44,0,0,1,2.41.38c.84.26,1.57.51,2.2.77a6.42,6.42,0,0,0-2-1.56,5.65,5.65,0,0,0-2.64-.63,3.35,3.35,0,0,0-2.74,1.42,18.3,18.3,0,0,0-1.81,2.69L191,48a9,9,0,0,1,1.1-1.56,5.1,5.1,0,0,1,1.34-1.09,3.46,3.46,0,0,1,1.73-.42,4.83,4.83,0,0,1,2.19.5,12.24,12.24,0,0,1,1.76,1.06,10.67,10.67,0,0,1,1.28,1.13,2.53,2.53,0,0,0,.69.6,3,3,0,0,0,1.32.39c.47,0,.71-.31.71-.94A2.77,2.77,0,0,0,202.91,46.8Z"/><path class="cls-1" d="M232.68,44.79c-.28-.61-.56-.93-.85-.93s-.82.37-1.26,1.1a11.34,11.34,0,0,0-1.15,2.9h-.5c0-.28.06-.53.09-.73s0-.4,0-.58a2,2,0,0,0-.23-1.18.64.64,0,0,0-.49-.24l-1.21-.06a21.31,21.31,0,0,1-.44,4.28,32.46,32.46,0,0,1-1,3.94c-.3,2.27-.71,4.54-1.24,6.83s-1.24,4.89-2.11,7.81a23.12,23.12,0,0,0-2.08-4.63,28.46,28.46,0,0,1-2.15-4.42,27.32,27.32,0,0,0-1.67-3c-.6-.95-1.19-1.92-1.78-2.91a11.24,11.24,0,0,1-1.42-2.6c-.41-1-.78-2-1.13-2.88a14.58,14.58,0,0,0-1.1-2.33c-.38-.64-.81-1-1.28-1a.94.94,0,0,0-.8.44,5.78,5.78,0,0,0-.54,1l-.47,1c-.15.3-.31.45-.5.45a2.33,2.33,0,0,0-.38-1,.64.64,0,0,0-.49-.25l-1.43.44q.17.54.33,1.23t.3,1.38c.09.45.17.89.25,1.31a6.62,6.62,0,0,1,.11,1,51.65,51.65,0,0,0,4.22,8q2.35,3.62,4.44,7.13L207.87,54l.17-.16a27.29,27.29,0,0,1,2.24,3.39c.77,1.36,1.52,2.75,2.27,4.17s1.47,2.82,2.14,4.17a35.65,35.65,0,0,0,1.9,3.4l-.28.49a11.5,11.5,0,0,1,.63,1.53c.17.52.35,1,.55,1.49a7.06,7.06,0,0,0,.66,1.23,1.66,1.66,0,0,0,.9.68,21,21,0,0,0-1.37-4.54c.33.65.63,1.29.88,1.92a11.65,11.65,0,0,1,.82,2.46l.33.55a63.21,63.21,0,0,1-2.9,6A35,35,0,0,1,213.3,86a26.73,26.73,0,0,0,3.12-4.37c.92-1.58,1.79-3.2,2.63-4.84l.82-2,.5.11-1,2.19c-.91,1.65-1.84,3.27-2.76,4.88a43.92,43.92,0,0,1-3,4.5l-.66-.17a12.1,12.1,0,0,1-1.1,1.08,3.55,3.55,0,0,1-1,.6,5.46,5.46,0,0,1-1.15.24c-.41,0-.9.06-1.48.06a5.2,5.2,0,0,0-.77-.11,5,5,0,0,0-1.54.27,6,6,0,0,0,3.13.94,5.89,5.89,0,0,0,3.7-1.35,16.23,16.23,0,0,0,3.21-3.45A35.42,35.42,0,0,0,218.67,80c.84-1.69,1.62-3.35,2.36-4.95h.05c-.84,1.93-1.72,3.78-2.63,5.53a34.24,34.24,0,0,1-2.88,4.66,14.37,14.37,0,0,1-3.15,3.21A5.83,5.83,0,0,1,209,89.59a8.83,8.83,0,0,1-2.05-.25,3.08,3.08,0,0,1-1.51-.69,3.73,3.73,0,0,1-.66.2A6.17,6.17,0,0,0,204,89a1.81,1.81,0,0,0-.63.33.81.81,0,0,0-.27.66,1.09,1.09,0,0,0,.3.77,6.94,6.94,0,0,0,.68.63,6,6,0,0,1,.69.62,1.05,1.05,0,0,1,.3.72,14.86,14.86,0,0,0,3.84.49,9.51,9.51,0,0,0,2.83-.49,18.27,18.27,0,0,0,2.81-1.15,10.37,10.37,0,0,1-3.09,1.4,11.88,11.88,0,0,1-3,.46,11.22,11.22,0,0,1-3.51-.54.89.89,0,0,0-.11.38c0,.18.23.43.68.76a4.71,4.71,0,0,0,2.61.5,12.21,12.21,0,0,0,4.68-.85,14.76,14.76,0,0,0,3.68-2.17,16.8,16.8,0,0,0,2.85-2.93c.82-1.08,1.56-2.11,2.22-3.1a76,76,0,0,0,5.26-10.47,96.15,96.15,0,0,0,3.62-10.75c.62-2.78,1.23-5.59,1.81-8.44a40.08,40.08,0,0,0,.88-7.95A8.61,8.61,0,0,0,232.68,44.79ZM215,64.54c-.59-1.06-1.16-2.13-1.7-3.19.61.92,1.2,1.84,1.73,2.77a26.29,26.29,0,0,1,1.39,2.82l.22.6C216.13,66.52,215.58,65.52,215,64.54Zm3.92-.75c-.17-.23-.33-.49-.49-.76a5.14,5.14,0,0,1-.45-1,5.7,5.7,0,0,1-.25-1.37l1.42,3.48A4.23,4.23,0,0,0,218.92,63.79Zm.35.69-.12-.3a5.14,5.14,0,0,1,.23.47ZM223,66.12l.33.17L223,67.6c-.11.45-.24.88-.38,1.32a3.58,3.58,0,0,1-.22-.66Zm-.77,4.12-.27.43a.82.82,0,0,0-.17-.35l-.22-.3.39-.44Zm-2.52-5,2.14,4.16-.33.34Zm.91,19.6a24.85,24.85,0,0,1-4.37,5.34,27.12,27.12,0,0,0,4.29-5.45c1.12-1.92,2.22-3.82,3.29-5.73C222.84,80.93,221.77,82.87,220.62,84.79Z"/><path class="cls-1" d="M271.66,36.49c-.05-.35-.23-.52-.52-.52a1.68,1.68,0,0,0-1.37.68,7.2,7.2,0,0,0-.94,1.54c-.25.56-.47,1.12-.65,1.65a2,2,0,0,1-.6,1l-.56-.38a39.86,39.86,0,0,0-1.45,6.25c-.31,2.12-.55,4.27-.71,6.42s-.31,4.31-.44,6.44-.34,4.27-.63,6.39c-.07.33-.13.67-.17,1s-.07.69-.1,1l-.33-.17a42.08,42.08,0,0,0,1.07-6.88q.24-3.48.44-7c.12-2.33.32-4.66.6-7a33.74,33.74,0,0,1,1.56-6.85l-.33-.22c-.51,0-1,.52-1.34,1.56a22.62,22.62,0,0,0-1,4.06q-.42,2.49-.69,5.53c-.18,2-.36,4-.52,6.06s-.32,3.9-.44,5.65-.27,3.16-.41,4.22a19.68,19.68,0,0,1-3.35-4.5,40.51,40.51,0,0,1-2.41-5.34c-.7-1.88-1.32-3.82-1.89-5.82s-1.16-4-1.78-5.91-1.32-3.84-2.09-5.65a27.83,27.83,0,0,0-2.74-5c-.18-.22-.34-.43-.49-.63s-.31-.43-.49-.69l-6,1.16a33,33,0,0,0-1.34,5.64,41.11,41.11,0,0,0-.41,5.76c0,1.5,0,3.24.14,5.21s.21,4,.36,6.09.32,4.14.54,6.16.46,3.84.71,5.43.52,2.87.77,3.84.53,1.45.82,1.45.78-.37,1-1.09a13.75,13.75,0,0,0,.52-2.47c.11-.91.17-1.8.19-2.66s0-1.44,0-1.72h.66c0,.13,0,.5,0,1.06a16,16,0,0,0,.13,1.78,9.14,9.14,0,0,0,.33,1.67c.15.5.37.75.65.75l1.21-.22c-.14-2.53-.29-5.06-.43-7.6s-.22-5.07-.22-7.59a38.66,38.66,0,0,0-.25-4.45,38.6,38.6,0,0,1-.25-4.49c.47,1.5,1,3.16,1.54,5s1.16,3.69,1.86,5.6,1.47,3.77,2.33,5.61a32.09,32.09,0,0,0,3,5.13,21.85,21.85,0,0,0,3.73,4.08A12.06,12.06,0,0,0,263.19,75a16.69,16.69,0,0,1-5.37-3.37,23.83,23.83,0,0,1-4-5,37.73,37.73,0,0,1-3-6q-1.29-3.24-2.3-6.55t-1.92-6.53c-.61-2.13-1.22-4.12-1.84-5.94l.33-.28c.62,1.64,1.24,3.45,1.87,5.4s1.26,4,1.94,6,1.4,4.08,2.17,6.11a48.38,48.38,0,0,0,2.63,5.79,31.64,31.64,0,0,0,3.34,5,18.58,18.58,0,0,0,4.23,3.81,8.18,8.18,0,0,0,.95.57c.39.21.76.39,1.13.55a9.44,9.44,0,0,0,1,.42,2.62,2.62,0,0,0,.77.16l.68,0c.24,0,.45,0,.63,0,.55-2.16,1-4.26,1.49-6.28a30.77,30.77,0,0,0,.65-6.39l.66-.33q.33-5.31.85-10.53c.35-3.47.79-7,1.35-10.47A22.51,22.51,0,0,0,270,45.59c-.35,1.59-.63,3.21-.85,4.88s-.39,3.32-.52,5-.26,3.22-.41,4.71c.11-1.64.22-3.26.33-4.88s.25-3.2.43-4.79.44-3.17.75-4.74A44.23,44.23,0,0,1,270.92,41a6.06,6.06,0,0,0,.36-1.09c.08-.4.17-.78.25-1.12s.12-.63.16-.85l.05-.39A5.81,5.81,0,0,0,271.66,36.49ZM258.42,63.33l1.5,2.11c.57.78,1.14,1.54,1.71,2.27A7.31,7.31,0,0,0,263,69.19h-.16A42.07,42.07,0,0,1,259.92,66a15.52,15.52,0,0,1-2.27-3.7A5.69,5.69,0,0,1,258.42,63.33Zm8.22,7.4c-.32,1.31-.69,2.63-1.1,3.94-1.6-.69-3-1.33-4.08-1.94a19.41,19.41,0,0,1-2.88-1.87,12.52,12.52,0,0,1-2-2A20.91,20.91,0,0,1,255,66.43c-.49-.9-1-1.88-1.5-2.94-.34-.76-.72-1.61-1.16-2.52q1,2.09,1.92,3.78a23.09,23.09,0,0,0,2.49,4,15.39,15.39,0,0,0,3.46,3.13,23.86,23.86,0,0,0,5.34,2.51c.34-1.27.67-2.54,1-3.81a37.26,37.26,0,0,0,.85-3.86A35.51,35.51,0,0,1,266.64,70.73Z"/><path class="cls-1" d="M286,41.78a1.89,1.89,0,0,0-1.21.49,4.26,4.26,0,0,0-1,1.32l-.5-.16v-.28a1.26,1.26,0,0,0-.16-.69c-.11-.16-.34-.24-.71-.24H282a2,2,0,0,1-.56-.11,8.63,8.63,0,0,1-.57,2,4.61,4.61,0,0,0-.41,1.78c-.19,1.35-.37,2.83-.55,4.44s-.37,3.25-.58,4.91-.39,3.34-.57,5c-.11,1.17-.2,2.27-.27,3.29.07-.54.14-1.13.22-1.75.14-1.17.3-2.35.46-3.54s.32-2.34.46-3.45.26-2.11.34-3l.65.17a16.16,16.16,0,0,1-.27,2.71c-.19,1.05-.39,2.12-.63,3.24s-.45,2.21-.63,3.29a17.62,17.62,0,0,0-.27,2.87v.56a2.17,2.17,0,0,0,.05.48l-.6.55c-.08.66-.13,1.24-.17,1.73s-.05,1.11-.05,1.83a1.7,1.7,0,0,0,.82,1.49c.11-1.06.24-2.26.38-3.59s.3-2.68.44-4,.29-2.67.44-4,.31-2.42.49-3.4c-.1,1-.21,2.15-.32,3.49s-.22,2.69-.33,4.08-.23,2.77-.36,4.13-.26,2.57-.41,3.59a2.18,2.18,0,0,0,.77.5,2.27,2.27,0,0,0,.87.22,1.48,1.48,0,0,0,1.32-.88v-.65H283a15.66,15.66,0,0,0,.11-2,9.94,9.94,0,0,1,.11-1.64c0,.54,0,1.17.05,1.86s.06,1.28.06,1.76a1.34,1.34,0,0,0,.74-.2c.2-.13.3-.46.3-1a5.91,5.91,0,0,0-.05-.82,6.23,6.23,0,0,1-.06-.83,19.65,19.65,0,0,1,.38-3.62c.26-1.31.55-2.68.86-4.08s.59-2.8.84-4.17a20.52,20.52,0,0,0,.39-3.81V51a18.39,18.39,0,0,1,.3-3.26,18,18,0,0,0,.31-3.16C287.32,42.71,286.87,41.78,286,41.78Zm5.12-12.28-.3-.39a7.38,7.38,0,0,0-1.07.72c-.31.25-.6.51-.87.76l-.8.77a6.11,6.11,0,0,1-.87.71c.54-.54,1.07-1.11,1.59-1.7A6.66,6.66,0,0,1,290.49,29c0-.11-.09-.25-.27-.44a3.15,3.15,0,0,0-.66-.49,4.39,4.39,0,0,0-.85-.38,2.56,2.56,0,0,0-.85-.17l-.16.17a.89.89,0,0,1-.33-.11c-.15-.08-.31-.15-.5-.23l-.79.83a7.42,7.42,0,0,1-.9.82c.18-.18.46-.48.84-.91a3.74,3.74,0,0,0,.69-.9l-1-.33c-.14,0-.2.08-.16.24s0,.25-.16.25-.48.2-.88.39a12.4,12.4,0,0,0-1.24.65,4.84,4.84,0,0,0-1.09.91,1.61,1.61,0,0,0-.47,1.07,2.86,2.86,0,0,0,.2,1.07c.12.34.26.68.4,1l.41.83a1.22,1.22,0,0,1,.19.52.24.24,0,0,0-.27.27,3.16,3.16,0,0,0,.14.77,3.53,3.53,0,0,1,.13.93,6.38,6.38,0,0,0,.86.05,3,3,0,0,1,.79.11l.05.06a2.77,2.77,0,0,0,.91-.6c.49-.4,1-.87,1.59-1.4s1.11-1,1.62-1.56l1-1L287,33.88c-.11,0-.17,0-.17-.05v-.11a1.84,1.84,0,0,1,.55-.87c.26-.23.51-.42.77-.61s.51-.39.77-.6a1.9,1.9,0,0,0,.55-.88.61.61,0,0,1,.3.11c.13.07.19.14.19.22l1.26-1.26A.48.48,0,0,0,291.12,29.5Z"/><path class="cls-1" d="M323,27.3a7,7,0,0,0-3.48-1c-.07,0-.13-.07-.14-.19a2.13,2.13,0,0,1,0-.3c.77,0,1.39,0,1.87-.06a7.63,7.63,0,0,0,1.07-.14.71.71,0,0,0,.46-.25.68.68,0,0,0,.11-.38l0-1.15c-.33,0-.66-.05-1-.05h-1a42,42,0,0,0-4.91.3,12.22,12.22,0,0,0-4.91,1.73,14.87,14.87,0,0,0-4.13,3.45,18.82,18.82,0,0,0-2.72,4.33,23.51,23.51,0,0,0-1.57,4.69,43.53,43.53,0,0,0-.73,4.52,9.23,9.23,0,0,1-1.7.08,9,9,0,0,0-1.76.11,3.94,3.94,0,0,0-1.37.47,1.21,1.21,0,0,0-.54,1.15,2.23,2.23,0,0,0,.38,1.21,2.11,2.11,0,0,0,1.15.87l-.44.61c-.4,0-.6.22-.6.65,0,.19,0,.36,0,.53a2.48,2.48,0,0,1,0,.46v.22a7,7,0,0,1,2.47.49c.62,0,1.08,0,1.37,0a5.37,5.37,0,0,0,.77-.08c0,2.08.11,4.12.22,6.09s.16,3.91.16,5.81c0,1.39-.05,2.76-.16,4.11a23.33,23.33,0,0,1-.55,3.9,28.59,28.59,0,0,0,.66-4.28c.14-1.5.21-3,.21-4.55,0-1.79,0-3.6-.13-5.43s-.15-3.71-.19-5.65h.27a.54.54,0,0,0,.27-.05c0,1.53.07,3,.08,4.5s0,2.9,0,4.33q0,3-.13,5.89c-.09,1.92-.29,3.87-.58,5.84l-.49.06a19.61,19.61,0,0,1-1.1,3.67,26.9,26.9,0,0,1-1.37,2.79c-.48.84-.93,1.64-1.37,2.39a12,12,0,0,0-1.09,2.44l2.3-2.85a7.56,7.56,0,0,0,1.29-1.78A24.4,24.4,0,0,0,301,74.45c.33-.84.63-1.71.9-2.62s.5-1.81.68-2.69c-.29,1.5-.61,2.81-.95,4a24.45,24.45,0,0,1-1.21,3.14A18.33,18.33,0,0,1,298.77,79c-.62.87-1.34,1.79-2.14,2.74l-.65.82-.33,1.32a3.19,3.19,0,0,0,.22,1.31.7.7,0,0,0,.65.5c.44,0,1-.39,1.76-1.16l1-1.48a1,1,0,0,1,.54.11.81.81,0,0,1,.28.39,33.63,33.63,0,0,0,3.29-5.13,29.78,29.78,0,0,0,2.35-6.06c-.25,1-.53,2-.81,3s-.65,1.93-1.05,3a18.49,18.49,0,0,1-1.76,3c-.65.91-1.27,1.8-1.86,2.64a.36.36,0,0,0,.33.27c.33,0,.72-.26,1.18-.77a13.05,13.05,0,0,0,1.43-2,30,30,0,0,0,1.45-2.74,27.43,27.43,0,0,0,1.2-3,24.74,24.74,0,0,0,1.65-5.51,49.23,49.23,0,0,0,.66-5.7c.11-1.92.17-3.84.17-5.79s.05-3.83.16-5.7V48.69c1.6-.22,3.21-.51,4.82-.88q-1.16.22-2.25.33c-.84.11-1.7.24-2.57.38v-.44l2.63-.22a8.45,8.45,0,0,0,2.63-.65c0,.29.29.43.87.43a5.33,5.33,0,0,0,2-.46A2.33,2.33,0,0,0,318,46.05a28.52,28.52,0,0,0-4.82.64,33.41,33.41,0,0,1-4.71.68v0c1.75-.26,3.4-.55,4.93-.86s3.12-.61,4.77-.9a.66.66,0,0,0,.19-.41,4.17,4.17,0,0,0,0-.52,2.21,2.21,0,0,0-.3-1.09,1.68,1.68,0,0,0-.9-.78.84.84,0,0,0-.33.11.49.49,0,0,1-.17.06.73.73,0,0,1-.17-.33,2.32,2.32,0,0,0-.16-.49,7.33,7.33,0,0,1-1.31.41l-1.21.24a9.61,9.61,0,0,0,2.52-1,3.34,3.34,0,0,0-.41-.58.61.61,0,0,0-.41-.14,2.3,2.3,0,0,0-1,.28,2.3,2.3,0,0,1-1,.28,13.28,13.28,0,0,0-2.39.22c-.82.14-1.64.25-2.44.32q.66-7.12,5.16-10.25a11.94,11.94,0,0,1,3.21-1.26c1.18-.29,2.29-.54,3.34-.74s1.92-.4,2.63-.57,1.07-.45,1.07-.78S323.77,27.85,323,27.3ZM303.46,64c-.13.87-.27,1.7-.41,2.5l-.33,2v0c.18-1.28.32-2.57.41-3.87s.14-2.62.14-4,0-2.5-.11-3.78-.08-2.36-.11-3.56c.07,1.27.18,2.58.33,3.89a33.69,33.69,0,0,1,.27,4.22A18.61,18.61,0,0,1,303.46,64Zm3.59.14a44.54,44.54,0,0,1-1.15,7.79A43.59,43.59,0,0,0,307,64c.14-2.48.25-5,.32-7.4C307.32,59.08,307.23,61.57,307.05,64.09ZM310.81,43l2.1-.22-1.5.33a7,7,0,0,1-1.56.17,3.32,3.32,0,0,1-1.15-.17A18,18,0,0,0,310.81,43Z"/><path class="cls-1" d="M344.17,67.71a.51.51,0,0,1-.33.14,2.78,2.78,0,0,0-.38.08l-.45.12a2.39,2.39,0,0,1-.13-.51,3.48,3.48,0,0,1,0-.49,2.25,2.25,0,0,1-.49.06h-.49a23.65,23.65,0,0,1-3.51-.27c-1.17-.22-2.29-.47-3.35-.72,1.06.19,2.14.35,3.24.5a28.2,28.2,0,0,0,3.34.22l.88,0c.29,0,.43-.12.43-.3a.59.59,0,0,0-.35-.53,3.12,3.12,0,0,0-1.29-.19h-1.75a10.15,10.15,0,0,1-3.79-.55,2.46,2.46,0,0,1-1.59-1.64V60.31c0-.26,0-.65-.05-1.18s-.08-1.09-.14-1.69-.1-1.2-.14-1.79-.05-1.1-.05-1.53a17.48,17.48,0,0,1,.16-2.37c.11-.8.25-1.62.39-2.46a19.19,19.19,0,0,0,2.17-.11c.6-.07,1.3-.18,2.11-.33a19.92,19.92,0,0,1-2.14.19c-.58,0-1.3,0-2.14,0a1.63,1.63,0,0,0,.05-.43c.55,0,1.06,0,1.51,0l1.34,0a8.57,8.57,0,0,0,1.16-.08,9.77,9.77,0,0,0,1.59-.47l.38.5a9,9,0,0,1,1.26-.25,8.5,8.5,0,0,0,1.12-.23,3.08,3.08,0,0,0,1-.41,2,2,0,0,0,.71-.76,10.8,10.8,0,0,0-2.63.3c-.81.2-1.69.37-2.64.52a5.12,5.12,0,0,1,.86-.33c.45-.15,1-.29,1.53-.43s1.13-.28,1.7-.39a7.46,7.46,0,0,1,1.34-.17,1.73,1.73,0,0,1,.11-.52,1.83,1.83,0,0,0,.11-.68,2.42,2.42,0,0,0-.17-.91,1.36,1.36,0,0,0-.7-.68,1.7,1.7,0,0,0-.39.11.78.78,0,0,1-.27,0,1.85,1.85,0,0,1-.14-.49,3.73,3.73,0,0,1,0-.5c-.73.19-1.42.38-2.08.58a10.91,10.91,0,0,1-1.87.41l1.84-.57,1.94-.58a1,1,0,0,0-.21-.6.78.78,0,0,0-.66-.27,2,2,0,0,0-1.1.43,1.91,1.91,0,0,1-1.15.44c-.36,0-.73,0-1.09,0s-.74,0-1.1,0a17.33,17.33,0,0,1-2.36-.16c.15-1,.31-1.9.49-2.74s.37-1.67.56-2.47.33-1.62.46-2.44a18.39,18.39,0,0,0,.19-2.66v-1c-.15-1.58-.53-2.36-1.15-2.36q-.6,0-1.23.93a8.88,8.88,0,0,0-1.07,2.41l-.66-.16a7.18,7.18,0,0,0,.17-1.32,1,1,0,0,0-.2-.77.74.74,0,0,0-.47-.16l-1.14-.05a22.63,22.63,0,0,1-.39,2.54,11.34,11.34,0,0,1-.77,2.39c-.21.66-.4,1.29-.54,1.89s-.28,1.21-.39,1.81-.22,1.23-.33,1.87-.24,1.36-.38,2.16c-.59,0-1.15-.09-1.7-.16a12.63,12.63,0,0,0-1.59-.11c-1.35,0-2,.47-2,1.43a2.14,2.14,0,0,0,.38,1.17,2.7,2.7,0,0,0,1,.91v.65a3.73,3.73,0,0,0-.55-.11c-.29,0-.47.08-.52.25a2,2,0,0,0-.08.58v1.09a3.46,3.46,0,0,1,1.1.22,6.47,6.47,0,0,1,1.2.61l1.87.11a2.47,2.47,0,0,0-.14.81c0,.37,0,.76,0,1.16v1q0,3.84.17,7c.11,1.82.22,3.23.33,4.22V60.69c0-.29,0-.75-.06-1.39s-.06-1.4-.08-2.28-.05-1.84-.08-2.88-.06-2.09-.06-3.15V50a5.57,5.57,0,0,1,.06-.87h.54c0,.29-.06.62-.08,1s0,.75,0,1.15c0,.66,0,1.36,0,2.08s0,1.45.08,2.15.07,1.35.09,2,0,1.13,0,1.53,0,1.09,0,1.62,0,1.11,0,1.73a13.92,13.92,0,0,0,.16,2,8.29,8.29,0,0,0,.66,2.22,7.27,7.27,0,0,0,1.37,2,4.76,4.76,0,0,0,2.31,1.32v.6c.55.15,1,.27,1.28.38s.6.22.86.3a8.14,8.14,0,0,0,.79.25c.27.07.66.14,1.18.22l3.94.49a6.77,6.77,0,0,0,1.7-.21,5.5,5.5,0,0,0,1.43-.61,34.33,34.33,0,0,1-4.77-.33,20.5,20.5,0,0,1-3.89-.87c1.17.18,2.36.35,3.59.51a27.15,27.15,0,0,0,3.75.25,9.56,9.56,0,0,0,1.16-.08,4.17,4.17,0,0,0,1.09-.3,2.43,2.43,0,0,0,.83-.6,1.53,1.53,0,0,0,.32-1C345.92,68.22,345.34,67.82,344.17,67.71Zm-14.72-1.42a.49.49,0,0,1-.14-.28,1.57,1.57,0,0,1,0-.27,4.56,4.56,0,0,0,0-.66,24,24,0,0,1-.75-4.64q-.24-3-.24-6.65l.16-1,.5,8.34c.07.83.13,1.73.16,2.68a6.83,6.83,0,0,0,.82,2.91A2.81,2.81,0,0,1,329.45,66.29ZM333,64.48a11.23,11.23,0,0,1-.16-2.2,9.18,9.18,0,0,1,.05-1.06c0-.35.07-.71.11-1.08v2.7a3.41,3.41,0,0,0,.11.92c.07.44.12.81.16,1.1a1.91,1.91,0,0,0,.39.71A2.09,2.09,0,0,1,333,64.48Z"/><path class="cls-1" d="M377.15,44.79c-.27-.61-.56-.93-.86-.93s-.81.37-1.25,1.1a11.33,11.33,0,0,0-1.16,2.9h-.49c0-.28.06-.53.09-.73s0-.4,0-.58a2.2,2.2,0,0,0-.21-1.18.68.68,0,0,0-.51-.24l-1.19-.06a21.34,21.34,0,0,1-.45,4.28,30.66,30.66,0,0,1-1,3.94,69,69,0,0,1-1.23,6.83c-.53,2.28-1.24,4.89-2.11,7.81a23.12,23.12,0,0,0-2.08-4.63,25.92,25.92,0,0,1-2.14-4.42,33.36,33.36,0,0,0-1.67-3c-.61-.95-1.2-1.92-1.79-2.91a10.87,10.87,0,0,1-1.42-2.6c-.41-1-.78-2-1.13-2.88a13.76,13.76,0,0,0-1.1-2.33c-.38-.64-.81-1-1.28-1a.94.94,0,0,0-.8.44,6.57,6.57,0,0,0-.55,1c-.16.36-.32.69-.46,1s-.31.45-.5.45a2.33,2.33,0,0,0-.38-1,.64.64,0,0,0-.49-.25l-1.43.44q.16.54.33,1.23t.3,1.38c.09.45.17.89.25,1.31a6.62,6.62,0,0,1,.11,1,51.65,51.65,0,0,0,4.22,8q2.36,3.62,4.44,7.13L352.34,54l.16-.16a25.19,25.19,0,0,1,2.25,3.39c.77,1.36,1.52,2.75,2.27,4.17s1.47,2.82,2.15,4.17a33.71,33.71,0,0,0,1.89,3.4l-.28.49a11.5,11.5,0,0,1,.63,1.53c.17.52.35,1,.55,1.49a7.06,7.06,0,0,0,.66,1.23,1.59,1.59,0,0,0,.9.68,21.56,21.56,0,0,0-1.37-4.54c.33.65.62,1.29.88,1.92a11.65,11.65,0,0,1,.82,2.46l.33.55a65.72,65.72,0,0,1-2.9,6A35.75,35.75,0,0,1,357.77,86a26.73,26.73,0,0,0,3.12-4.37c.92-1.58,1.79-3.2,2.63-4.84l.83-2,.49.11-1,2.19c-.91,1.65-1.84,3.27-2.77,4.88a42.33,42.33,0,0,1-3,4.5l-.65-.17a13.55,13.55,0,0,1-1.1,1.08,3.55,3.55,0,0,1-1,.6,5.46,5.46,0,0,1-1.15.24c-.41,0-.9.06-1.48.06a5.2,5.2,0,0,0-.77-.11,4.84,4.84,0,0,0-1.53.27,5.7,5.7,0,0,0,6.82-.41,16,16,0,0,0,3.2-3.45A34.38,34.38,0,0,0,363.14,80c.84-1.69,1.62-3.35,2.35-4.95h.06c-.84,1.93-1.72,3.78-2.63,5.53A33.28,33.28,0,0,1,360,85.2a14.62,14.62,0,0,1-3.16,3.21,5.78,5.78,0,0,1-3.45,1.18,8.83,8.83,0,0,1-2.05-.25,3,3,0,0,1-1.51-.69,3.73,3.73,0,0,1-.66.2,5.72,5.72,0,0,0-.74.19,1.81,1.81,0,0,0-.63.33.81.81,0,0,0-.27.66,1.13,1.13,0,0,0,.3.77,6.09,6.09,0,0,0,.69.63,6.88,6.88,0,0,1,.68.62,1.05,1.05,0,0,1,.3.72,14.92,14.92,0,0,0,3.84.49,9.4,9.4,0,0,0,2.82-.49A18.12,18.12,0,0,0,359,91.62a10.54,10.54,0,0,1-3.1,1.4,11.88,11.88,0,0,1-3,.46,11.22,11.22,0,0,1-3.51-.54.89.89,0,0,0-.11.38c0,.18.23.43.68.76a4.71,4.71,0,0,0,2.61.5,12.33,12.33,0,0,0,4.69-.85,14.88,14.88,0,0,0,3.67-2.17,16.8,16.8,0,0,0,2.85-2.93c.82-1.08,1.56-2.11,2.22-3.1a76,76,0,0,0,5.26-10.47,98.23,98.23,0,0,0,3.62-10.75c.62-2.78,1.23-5.59,1.81-8.44a39.34,39.34,0,0,0,.88-7.95A8.61,8.61,0,0,0,377.15,44.79ZM359.47,64.54c-.59-1.06-1.16-2.13-1.7-3.19.62.92,1.19,1.84,1.72,2.77a26.38,26.38,0,0,1,1.4,2.82l.22.6C360.6,66.52,360.05,65.52,359.47,64.54Zm3.91-.75c-.16-.23-.32-.49-.49-.76a5.86,5.86,0,0,1-.44-1,5.25,5.25,0,0,1-.25-1.37l1.42,3.48A4.2,4.2,0,0,0,363.38,63.79Zm.36.69-.12-.3a3.42,3.42,0,0,1,.23.47Zm3.73,1.64.33.17-.33,1.31c-.11.45-.24.88-.38,1.32a3,3,0,0,1-.22-.66Zm-.77,4.12-.27.43a1,1,0,0,0-.16-.35L366,70l.39-.44Zm-2.52-5,2.14,4.16-.33.34Zm.9,19.6a24.74,24.74,0,0,1-4.35,5.34A27,27,0,0,0,365,84.68c1.13-1.92,2.23-3.82,3.29-5.73C367.3,80.93,366.24,82.87,365.08,84.79Z"/><path class="cls-1" d="M90.74,0A25.41,25.41,0,0,0,72.62,7.59V0H68.94A25.41,25.41,0,0,0,50.81,7.59V0H47.14A25.51,25.51,0,0,0,21.65,25.49V64.65c-.39,0-.78,0-1.17,0a13.73,13.73,0,0,0-2.92.31A13.59,13.59,0,0,0,12.69,67a6.63,6.63,0,0,0-6.08-4,5.86,5.86,0,0,0-1.39.15,6.6,6.6,0,0,0,1.37,13h.19a13.67,13.67,0,0,0,.11,5.29,14,14,0,0,0,13.58,11,14,14,0,0,0,5.69-1.21A13.29,13.29,0,0,0,35,94.58h46A13.38,13.38,0,0,0,94.42,81.21V0Zm0,81.21a9.72,9.72,0,0,1-9.69,9.69H35a9.69,9.69,0,0,1-8.13-4.44,10.07,10.07,0,0,1-4.26,2.05,10.72,10.72,0,0,1-2.16.23,10.24,10.24,0,0,1-10-8.08,10,10,0,0,1,0-4.12,8.94,8.94,0,0,1,.29-1.16,2.32,2.32,0,0,0-.06-.74,2.9,2.9,0,0,0-2.85-2.31,3.42,3.42,0,0,0-.62.06,2.56,2.56,0,0,1-.62.07A2.92,2.92,0,0,1,6,66.68a2.61,2.61,0,0,1,.62-.06,2.92,2.92,0,0,1,2.85,2.3,2.9,2.9,0,0,0,2.85,2.31,2.62,2.62,0,0,0,.62-.07,2.44,2.44,0,0,0,.7-.25,11.62,11.62,0,0,1,.93-.74,10,10,0,0,1,3.78-1.65,9.8,9.8,0,0,1,2.14-.23,10.1,10.1,0,0,1,4.85,1.23v-44A21.8,21.8,0,0,1,47.14,3.68V25.49A21.8,21.8,0,0,1,68.94,3.68V25.49A21.8,21.8,0,0,1,90.74,3.68Z"/><path class="cls-1" d="M83.48,60.1v18a5.56,5.56,0,0,1-5.54,5.53H76.21V80a3.64,3.64,0,0,0-7.27,0v3.64H47.14V80a3.64,3.64,0,0,0-3.64-3.62h0A3.62,3.62,0,0,0,39.87,80v3.64H38.14A5.55,5.55,0,0,1,32.6,78.1v-18a5.55,5.55,0,0,1,5.54-5.54h1.73v3.63a3.64,3.64,0,0,0,3.63,3.64h0a3.65,3.65,0,0,0,3.64-3.64V54.56h21.8v3.63a3.64,3.64,0,1,0,7.27,0V54.56h1.73A5.56,5.56,0,0,1,83.48,60.1Z"/><rect class="cls-1" x="68.94" y="36.91" width="7.27" height="10.38" rx="2.07"/><path class="cls-1" d="M47.14,39v6.23a2.09,2.09,0,0,1-2.09,2.08H41.94a2.08,2.08,0,0,1-2.07-2.08V39a2.07,2.07,0,0,1,2.07-2.07h3.11A2.08,2.08,0,0,1,47.14,39Z"/><path class="cls-1" d="M43.33,7.09a25.15,25.15,0,0,0-6.26,3.67A20.77,20.77,0,0,0,32.48,16a20.09,20.09,0,0,0-2.55,6.49c-.05.29-.13.58-.17.87s-.07.59-.11.89c-.1.58-.14,1.21-.21,1.83-.15,1.24-.29,2.48-.53,3.72-.25-1.24-.39-2.48-.55-3.72-.06-.62-.13-1.23-.15-1.88a11.43,11.43,0,0,1,0-1.94,16.1,16.1,0,0,1,2.37-7.41,16.59,16.59,0,0,1,5.46-5.53A14.84,14.84,0,0,1,43.33,7.09Z"/><path class="cls-1" d="M65.13,7.09a26.26,26.26,0,0,0-6,3.48,20.73,20.73,0,0,0-4.51,4.89,21.66,21.66,0,0,0-2.75,6.05c-.16.55-.23,1.11-.38,1.66s-.17,1.13-.27,1.7c-.14,1.18-.29,2.35-.53,3.54-.25-1.19-.39-2.36-.54-3.54,0-.6-.08-1.22-.1-1.84s.06-1.23.14-1.84a16.55,16.55,0,0,1,2.59-7,16.06,16.06,0,0,1,5.38-5.09A14.25,14.25,0,0,1,65.13,7.09Z"/><path class="cls-1" d="M86.94,7.09a26.33,26.33,0,0,0-6,3.48,20.9,20.9,0,0,0-4.5,4.89,21.66,21.66,0,0,0-2.75,6.05c-.17.55-.24,1.11-.38,1.66s-.18,1.13-.27,1.7c-.15,1.18-.29,2.35-.53,3.54-.25-1.19-.39-2.36-.55-3.54,0-.6-.07-1.22-.09-1.84s.05-1.23.13-1.84a16.56,16.56,0,0,1,2.6-7A15.94,15.94,0,0,1,80,9.15,14.32,14.32,0,0,1,86.94,7.09Z"/></g></g></svg>