<svg height="36.003" viewBox="0 0 35.431 36.003" width="35.431" xmlns="http://www.w3.org/2000/svg"><path d="m17.1 13.352v4.788c1.835.415 3.466 1.1 5.175 1.568v-4.8c-1.828-.408-3.473-1.09-5.175-1.561zm15.7-8.652a20.532 20.532 0 0 1 -8.227 2.243c-3.76.004-6.873-2.443-11.614-2.443a13.671 13.671 0 0 0 -4.781.844 3.938 3.938 0 1 0 -5.928 1.821v27.148a1.683 1.683 0 0 0 1.688 1.687h1.125a1.683 1.683 0 0 0 1.687-1.687v-6.638a19.6 19.6 0 0 1 8.044-1.554c3.769 0 6.877 2.447 11.616 2.447a14.692 14.692 0 0 0 8.613-2.876 2.243 2.243 0 0 0 .97-1.856v-17.093a2.247 2.247 0 0 0 -3.193-2.043zm-20.875 18.187a22.151 22.151 0 0 0 -5.175 1.167v-4.954a20.115 20.115 0 0 1 5.175-1.223zm20.7-9.457a22.428 22.428 0 0 1 -5.175 1.68v5a13.068 13.068 0 0 0 5.175-1.828v4.957a11.361 11.361 0 0 1 -5.175 1.905v-5.035a11.893 11.893 0 0 1 -5.175-.394v4.739a41.024 41.024 0 0 0 -5.175-1.5v-4.813a15.629 15.629 0 0 0 -5.175-.267v-4.922a24.812 24.812 0 0 0 -5.175 1.47v-4.958a20.135 20.135 0 0 1 5.175-1.547v5.034a11.96 11.96 0 0 1 5.175.4v-4.738a40.028 40.028 0 0 0 5.175 1.5v4.807a13.394 13.394 0 0 0 5.175.19v-5.055a24.878 24.878 0 0 0 5.175-1.582z" fill="#24ddd8" transform="translate(-.563 .003)"/></svg>