<?xml version="1.0" encoding="UTF-8" standalone="no"?>
<svg
   xmlns:dc="http://purl.org/dc/elements/1.1/"
   xmlns:cc="http://creativecommons.org/ns#"
   xmlns:rdf="http://www.w3.org/1999/02/22-rdf-syntax-ns#"
   xmlns:svg="http://www.w3.org/2000/svg"
   xmlns="http://www.w3.org/2000/svg"
   xmlns:sodipodi="http://sodipodi.sourceforge.net/DTD/sodipodi-0.dtd"
   xmlns:inkscape="http://www.inkscape.org/namespaces/inkscape"
   id="canvas"
   width="869.749"
   height="586.553"
   viewBox="0 0 869.749 586.553"
   version="1.1"
   sodipodi:docname="race.svg"
   inkscape:version="0.92.4 (unknown)">
  <metadata
     id="metadata62">
    <rdf:RDF>
      <cc:Work
         rdf:about="">
        <dc:format>image/svg+xml</dc:format>
        <dc:type
           rdf:resource="http://purl.org/dc/dcmitype/StillImage" />
        <dc:title></dc:title>
      </cc:Work>
    </rdf:RDF>
  </metadata>
  <sodipodi:namedview
     pagecolor="#ffffff"
     bordercolor="#666666"
     borderopacity="1"
     objecttolerance="10"
     gridtolerance="10"
     guidetolerance="10"
     inkscape:pageopacity="0"
     inkscape:pageshadow="2"
     inkscape:window-width="2560"
     inkscape:window-height="1376"
     id="namedview60"
     showgrid="false"
     inkscape:zoom="1.6094028"
     inkscape:cx="416.75355"
     inkscape:cy="257.91815"
     inkscape:window-x="0"
     inkscape:window-y="27"
     inkscape:window-maximized="1"
     inkscape:current-layer="ddd" />
  <defs
     id="defs13">
    <filter
       id="Path_550"
       x="0"
       y="0"
       width="869.749"
       height="586.553"
       filterUnits="userSpaceOnUse">
      <feOffset
         dy="3"
         input="SourceAlpha"
         id="feOffset2" />
      <feGaussianBlur
         stdDeviation="1.5"
         result="blur"
         id="feGaussianBlur4" />
      <feFlood
         flood-opacity="0.251"
         id="feFlood6" />
      <feComposite
         operator="in"
         in2="blur"
         id="feComposite8"
         result="result1" />
      <feComposite
         in="SourceGraphic"
         in2="result1"
         id="feComposite10" />
    </filter>
  </defs>
  <g
     id="g57"
     data-name="Group 120"
     transform="translate(-4990.008 -1044.5)">
    <g
       id="ddd"
       data-name="Group 117"
       transform="translate(5851.256 1050) rotate(90)">
      <path
         id="dd"
         data-name="Path 548"
         d="M495.071,0C454,0,420.589,39.156,420.589,87.285v74.72c0,12.839-8.913,23.284-19.869,23.284H379.126c-10.955,0-19.868-10.445-19.868-23.284V87.285C359.258,39.156,325.846,0,284.776,0s-74.482,39.156-74.482,87.285v74.72c0,12.839-8.913,23.284-19.868,23.284H168.832c-10.955,0-19.868-10.445-19.868-23.284V87.285C148.964,39.156,115.551,0,74.482,0S0,39.156,0,87.285V765.464c0,48.129,33.412,87.286,74.482,87.286H495.071c41.069,0,74.482-39.156,74.482-87.286V87.285C569.553,39.156,536.14,0,495.071,0Zm19.868,765.464c0,12.839-8.913,23.284-19.868,23.284H74.482c-10.955,0-19.868-10.445-19.868-23.284V87.285C54.613,74.447,63.526,64,74.482,64S94.35,74.447,94.35,87.285v74.72c0,48.129,33.412,87.285,74.482,87.285h21.594c41.069,0,74.482-39.156,74.482-87.285V87.285c0-12.839,8.913-23.284,19.868-23.284s19.868,10.445,19.868,23.284v74.72c0,48.129,33.412,87.285,74.482,87.285h21.594c41.069,0,74.482-39.156,74.482-87.285V87.285C475.2,74.447,484.115,64,495.071,64s19.868,10.445,19.868,23.284Z"
         fill="#3d3d3d" />
    </g>
    <g
       id="Group_118"
       data-name="Group 118"
       transform="translate(5824.776 1076.398) rotate(90)">
      <path
         id="Path_549"
         data-name="Path 549"
         d="M453.5,794.775h-5.476a1.086,1.086,0,0,1,0-2.144H453.5a1.086,1.086,0,0,1,0,2.144Zm-27.381,0h-5.476a1.086,1.086,0,0,1,0-2.144h5.476a1.087,1.087,0,0,1,0,2.144Zm-27.381,0h-5.476a1.086,1.086,0,0,1,0-2.144h5.476a1.086,1.086,0,0,1,0,2.144Zm-27.381,0h-5.476a1.086,1.086,0,0,1,0-2.144h5.476a1.087,1.087,0,0,1,0,2.144Zm-27.381,0H338.5a1.086,1.086,0,0,1,0-2.144h5.476a1.086,1.086,0,0,1,0,2.144Zm-27.381,0h-5.476a1.086,1.086,0,0,1,0-2.144H316.6a1.086,1.086,0,0,1,0,2.144Zm-27.381,0h-5.476a1.086,1.086,0,0,1,0-2.144h5.476a1.087,1.087,0,0,1,0,2.144Zm-27.381,0h-5.476a1.086,1.086,0,0,1,0-2.144h5.476a1.087,1.087,0,0,1,0,2.144Zm-27.381,0h-5.476a1.086,1.086,0,0,1,0-2.144h5.476a1.086,1.086,0,0,1,0,2.144Zm-27.381,0H201.6a1.086,1.086,0,0,1,0-2.144h5.476a1.086,1.086,0,0,1,0,2.144Zm-27.381,0h-5.476a1.086,1.086,0,0,1,0-2.144h5.476a1.086,1.086,0,0,1,0,2.144Zm-27.381,0h-5.476a1.086,1.086,0,0,1,0-2.144h5.476a1.086,1.086,0,0,1,0,2.144Zm-27.381,0h-5.476a1.086,1.086,0,0,1,0-2.144h5.476a1.086,1.086,0,0,1,0,2.144Zm-27.38,0H92.075a1.086,1.086,0,0,1,0-2.144h5.476a1.086,1.086,0,0,1,0,2.144Zm-27.381,0H64.694a1.086,1.086,0,0,1,0-2.144H70.17a1.086,1.086,0,0,1,0,2.144ZM42.8,794.431a.755.755,0,0,1-.1-.007,41.5,41.5,0,0,1-5.5-1.106,1.09,1.09,0,0,1-.681-1.286.917.917,0,0,1,1.092-.8,40.008,40.008,0,0,0,5.289,1.064,1.045,1.045,0,0,1,.8,1.184A.979.979,0,0,1,42.8,794.431Zm432.58-.213a.973.973,0,0,1-.9-.921,1.057,1.057,0,0,1,.773-1.212,40.117,40.117,0,0,0,5.258-1.253.906.906,0,0,1,1.112.763,1.1,1.1,0,0,1-.648,1.31,41.6,41.6,0,0,1-5.467,1.3A.748.748,0,0,1,475.382,794.217ZM17.969,781.981a.826.826,0,0,1-.581-.247,52.827,52.827,0,0,1-4.079-4.48,1.211,1.211,0,0,1,.03-1.515.816.816,0,0,1,1.287.035,50.757,50.757,0,0,0,3.925,4.311,1.208,1.208,0,0,1,.119,1.51A.861.861,0,0,1,17.969,781.981Zm481.914-1.1a.855.855,0,0,1-.683-.363,1.209,1.209,0,0,1,.08-1.513,51.559,51.559,0,0,0,3.811-4.449.817.817,0,0,1,1.286-.081,1.209,1.209,0,0,1,.069,1.514,53.632,53.632,0,0,1-3.961,4.624A.832.832,0,0,1,499.883,780.88ZM2.979,755.54a.941.941,0,0,1-.87-.758A64.865,64.865,0,0,1,.787,748.4a1.073,1.073,0,0,1,.732-1.247.932.932,0,0,1,1.06.861,62.422,62.422,0,0,0,1.272,6.139,1.116,1.116,0,0,1-.6,1.339A.782.782,0,0,1,2.979,755.54Zm511.2-1.627a.776.776,0,0,1-.241-.039,1.1,1.1,0,0,1-.637-1.317c.47-2.025.844-4.1,1.112-6.182a.942.942,0,0,1,1.036-.9,1.06,1.06,0,0,1,.764,1.22,65.227,65.227,0,0,1-1.156,6.427A.947.947,0,0,1,514.18,753.913ZM.91,723.538A1,1,0,0,1,0,722.466v-6.45a1,1,0,0,1,.91-1.072,1,1,0,0,1,.91,1.072v6.45A1,1,0,0,1,.91,723.538Zm514.938-1.7a1,1,0,0,1-.91-1.072v-6.45a.922.922,0,1,1,1.82,0v6.45A1,1,0,0,1,515.849,721.843ZM.91,691.288A1,1,0,0,1,0,690.216v-6.45a1,1,0,0,1,.91-1.072,1,1,0,0,1,.91,1.072v6.45A1,1,0,0,1,.91,691.288Zm514.938-1.7a1,1,0,0,1-.91-1.072v-6.45a.922.922,0,1,1,1.82,0v6.45A1,1,0,0,1,515.849,689.593ZM.91,659.038A1,1,0,0,1,0,657.966v-6.45a1,1,0,0,1,.91-1.072,1,1,0,0,1,.91,1.072v6.45A1,1,0,0,1,.91,659.038Zm514.938-1.7a1,1,0,0,1-.91-1.072v-6.45a.922.922,0,1,1,1.82,0v6.45A1,1,0,0,1,515.849,657.343ZM.91,626.789A1,1,0,0,1,0,625.716v-6.45a1,1,0,0,1,.91-1.072,1,1,0,0,1,.91,1.072v6.45A1,1,0,0,1,.91,626.789Zm514.938-1.7a1,1,0,0,1-.91-1.072v-6.45a.922.922,0,1,1,1.82,0v6.45A1,1,0,0,1,515.849,625.093ZM.91,594.539A1,1,0,0,1,0,593.467v-6.45a1,1,0,0,1,.91-1.072,1,1,0,0,1,.91,1.072v6.45A1,1,0,0,1,.91,594.539Zm514.938-1.7a1,1,0,0,1-.91-1.072v-6.45a.922.922,0,1,1,1.82,0v6.45A1,1,0,0,1,515.849,592.843ZM.91,562.289A1,1,0,0,1,0,561.217v-6.45A1,1,0,0,1,.91,553.7a1,1,0,0,1,.91,1.072v6.45A1,1,0,0,1,.91,562.289Zm514.938-1.7a1,1,0,0,1-.91-1.072v-6.45a.922.922,0,1,1,1.82,0v6.45A1,1,0,0,1,515.849,560.594ZM.91,530.039A1,1,0,0,1,0,528.967v-6.45a1,1,0,0,1,.91-1.072,1,1,0,0,1,.91,1.072v6.45A1,1,0,0,1,.91,530.039Zm514.938-1.7a1,1,0,0,1-.91-1.072v-6.45a.922.922,0,1,1,1.82,0v6.45A1,1,0,0,1,515.849,528.344ZM.91,497.789A1,1,0,0,1,0,496.717v-6.451a1,1,0,0,1,.91-1.072,1,1,0,0,1,.91,1.072v6.451A1,1,0,0,1,.91,497.789Zm514.938-1.7a1,1,0,0,1-.91-1.072v-6.45a.922.922,0,1,1,1.82,0v6.45A1,1,0,0,1,515.849,496.094ZM.91,465.539A1,1,0,0,1,0,464.467v-6.45a1,1,0,0,1,.91-1.072,1,1,0,0,1,.91,1.072v6.45A1,1,0,0,1,.91,465.539Zm514.938-1.7a1,1,0,0,1-.91-1.072v-6.45a.922.922,0,1,1,1.82,0v6.45A1,1,0,0,1,515.849,463.844ZM.91,433.289A1,1,0,0,1,0,432.217v-6.45A1,1,0,0,1,.91,424.7a1,1,0,0,1,.91,1.072v6.45A1,1,0,0,1,.91,433.289Zm514.938-1.7a1,1,0,0,1-.91-1.072v-6.45a.922.922,0,1,1,1.82,0v6.45A1,1,0,0,1,515.849,431.594ZM.91,401.04A1,1,0,0,1,0,399.968v-6.45a1,1,0,0,1,.91-1.072,1,1,0,0,1,.91,1.072v6.45A1,1,0,0,1,.91,401.04Zm514.938-1.7a1,1,0,0,1-.91-1.072v-6.45a.922.922,0,1,1,1.82,0v6.45A1,1,0,0,1,515.849,399.344ZM.91,368.79A1,1,0,0,1,0,367.718v-6.45A1,1,0,0,1,.91,360.2a1,1,0,0,1,.91,1.072v6.45A1,1,0,0,1,.91,368.79Zm514.938-1.7a1,1,0,0,1-.91-1.072v-6.45a.922.922,0,1,1,1.82,0v6.45A1,1,0,0,1,515.849,367.094ZM.91,336.54A1,1,0,0,1,0,335.468v-6.45a1,1,0,0,1,.91-1.072,1,1,0,0,1,.91,1.072v6.45A1,1,0,0,1,.91,336.54Zm514.938-1.7a1,1,0,0,1-.91-1.072v-6.45a.922.922,0,1,1,1.82,0v6.45A1,1,0,0,1,515.849,334.845ZM.91,304.29A1,1,0,0,1,0,303.218v-6.45A1,1,0,0,1,.91,295.7a1,1,0,0,1,.91,1.072v6.45A1,1,0,0,1,.91,304.29Zm514.938-1.7a1,1,0,0,1-.91-1.072v-6.45a.922.922,0,1,1,1.82,0v6.45A1,1,0,0,1,515.849,302.595ZM.91,272.04A1,1,0,0,1,0,270.968v-6.45a1,1,0,0,1,.91-1.072,1,1,0,0,1,.91,1.072v6.45A1,1,0,0,1,.91,272.04Zm514.938-1.7a1,1,0,0,1-.91-1.072v-6.45a.922.922,0,1,1,1.82,0v6.45A1,1,0,0,1,515.849,270.345ZM.91,239.791A1,1,0,0,1,0,238.718v-6.45A1,1,0,0,1,.91,231.2a1,1,0,0,1,.91,1.072v6.45A1,1,0,0,1,.91,239.791Zm514.938-1.7a1,1,0,0,1-.91-1.072v-6.45a.922.922,0,1,1,1.82,0v6.45A1,1,0,0,1,515.849,238.1ZM.91,207.541A1,1,0,0,1,0,206.469v-6.45a1,1,0,0,1,.91-1.072,1,1,0,0,1,.91,1.072v6.45A1,1,0,0,1,.91,207.541Zm514.938-1.7a1,1,0,0,1-.91-1.072v-6.45a.922.922,0,1,1,1.82,0v6.45A1,1,0,0,1,515.849,205.845Zm-141.5-17.575h-4.514a1.087,1.087,0,0,1,0-2.144h4.49c.325,0,.646,0,.967-.012a1,1,0,0,1,.929,1.05,1.009,1.009,0,0,1-.891,1.094Q374.838,188.27,374.347,188.27Zm-229.17,0h-2.741c-.927,0-1.864-.031-2.785-.094a1.024,1.024,0,0,1-.857-1.131.985.985,0,0,1,.96-1.009c.886.06,1.788.09,2.681.09h2.741a1.086,1.086,0,0,1,0,2.144Zm21.9-.115a.989.989,0,0,1-.908-1,1.026,1.026,0,0,1,.851-1.138,39.836,39.836,0,0,0,5.326-.766.934.934,0,0,1,1.059.864,1.073,1.073,0,0,1-.733,1.246,41.472,41.472,0,0,1-5.536.8Zm180.862-.168a.811.811,0,0,1-.092-.006,41.534,41.534,0,0,1-5.508-1.037,1.087,1.087,0,0,1-.693-1.278.92.92,0,0,1,1.085-.816,39.862,39.862,0,0,0,5.3,1,1.041,1.041,0,0,1,.814,1.174A.982.982,0,0,1,347.94,187.988Zm48.383-6.115a.9.9,0,0,1-.806-.572,1.173,1.173,0,0,1,.38-1.449,45.808,45.808,0,0,0,4.59-3.269.827.827,0,0,1,1.266.277,1.2,1.2,0,0,1-.235,1.491,47.509,47.509,0,0,1-4.771,3.4A.8.8,0,0,1,396.322,181.872Zm-277.418-1a.8.8,0,0,1-.454-.144,48.373,48.373,0,0,1-4.663-3.606,1.2,1.2,0,0,1-.188-1.5.824.824,0,0,1,1.274-.221,46.56,46.56,0,0,0,4.487,3.47,1.182,1.182,0,0,1,.333,1.465A.894.894,0,0,1,118.9,180.876Zm73.483-3.76a.869.869,0,0,1-.728-.427,1.2,1.2,0,0,1,.179-1.5,49.67,49.67,0,0,0,4.093-4.088.817.817,0,0,1,1.287.037,1.211,1.211,0,0,1-.031,1.516,51.717,51.717,0,0,1-4.253,4.248A.818.818,0,0,1,192.387,177.116ZM323,175.846a.825.825,0,0,1-.574-.24,52.653,52.653,0,0,1-4.118-4.43,1.211,1.211,0,0,1,.016-1.516.816.816,0,0,1,1.287.019,50.592,50.592,0,0,0,3.963,4.263,1.207,1.207,0,0,1,.132,1.508A.864.864,0,0,1,323,175.846ZM.91,175.291A1,1,0,0,1,0,174.219v-6.45A1,1,0,0,1,.91,166.7a1,1,0,0,1,.91,1.072v6.45A1,1,0,0,1,.91,175.291Zm514.938-1.7a1,1,0,0,1-.91-1.072v-6.45a.922.922,0,1,1,1.82,0v6.45A1,1,0,0,1,515.849,173.6ZM415.6,159.623a.8.8,0,0,1-.441-.135,1.178,1.178,0,0,1-.354-1.458,59.289,59.289,0,0,0,2.326-5.7.868.868,0,0,1,1.188-.584,1.146,1.146,0,0,1,.5,1.4,61.465,61.465,0,0,1-2.418,5.923A.9.9,0,0,1,415.6,159.623ZM100.334,157.8a.906.906,0,0,1-.813-.588,62.258,62.258,0,0,1-2.228-6.023,1.134,1.134,0,0,1,.54-1.377.878.878,0,0,1,1.168.636,59.742,59.742,0,0,0,2.143,5.794,1.168,1.168,0,0,1-.4,1.441A.8.8,0,0,1,100.334,157.8Zm108.091-6.257a.786.786,0,0,1-.308-.064,1.132,1.132,0,0,1-.548-1.372,61.715,61.715,0,0,0,1.521-6.064.918.918,0,0,1,1.093-.8,1.091,1.091,0,0,1,.68,1.287,64.192,64.192,0,0,1-1.581,6.3A.931.931,0,0,1,208.425,151.542Zm99.347-1.952a.939.939,0,0,1-.867-.747,64.731,64.731,0,0,1-1.38-6.366,1.076,1.076,0,0,1,.72-1.256.93.93,0,0,1,1.067.848,62.389,62.389,0,0,0,1.327,6.123,1.119,1.119,0,0,1-.591,1.347A.78.78,0,0,1,307.772,149.59ZM.91,143.041A1,1,0,0,1,0,141.969v-6.45a1,1,0,0,1,.91-1.072,1,1,0,0,1,.91,1.072v6.45A1,1,0,0,1,.91,143.041Zm514.938-1.7a1,1,0,0,1-.91-1.072v-6.45a.922.922,0,1,1,1.82,0v6.45A1,1,0,0,1,515.849,141.346ZM421.5,128.558a1,1,0,0,1-.91-1.072v-6.45a.922.922,0,1,1,1.82,0v6.45A1,1,0,0,1,421.5,128.558ZM95.26,126.5a1,1,0,0,1-.91-1.072v-6.45a.922.922,0,1,1,1.82,0v6.45A1,1,0,0,1,95.26,126.5ZM211.2,119.673a1,1,0,0,1-.91-1.072v-6.45a.922.922,0,1,1,1.821,0v6.45A1,1,0,0,1,211.2,119.673Zm94.35-2.058a1,1,0,0,1-.91-1.072v-6.45a.922.922,0,1,1,1.821,0v6.45A1,1,0,0,1,305.555,117.615ZM.91,110.791A1,1,0,0,1,0,109.719v-6.45A1,1,0,0,1,.91,102.2a1,1,0,0,1,.91,1.072v6.45A1,1,0,0,1,.91,110.791Zm514.938-1.7a1,1,0,0,1-.91-1.072v-6.45a.922.922,0,1,1,1.82,0v6.45A1,1,0,0,1,515.849,109.1ZM421.5,96.309a1,1,0,0,1-.91-1.072v-6.45a.922.922,0,1,1,1.82,0v6.45A1,1,0,0,1,421.5,96.309ZM95.26,94.247a1,1,0,0,1-.91-1.072v-6.45a.922.922,0,1,1,1.82,0v6.45A1,1,0,0,1,95.26,94.247ZM211.2,87.423a1,1,0,0,1-.91-1.072V79.9a.922.922,0,1,1,1.821,0v6.45A1,1,0,0,1,211.2,87.423Zm94.35-2.058a1,1,0,0,1-.91-1.072v-6.45a.922.922,0,1,1,1.821,0v6.45A1,1,0,0,1,305.555,85.365ZM.91,78.542A1,1,0,0,1,0,77.469v-6.45a1,1,0,0,1,.91-1.072,1,1,0,0,1,.91,1.072v6.45A1,1,0,0,1,.91,78.542Zm514.938-1.7a1,1,0,0,1-.91-1.072v-6.45a.922.922,0,1,1,1.82,0v6.45A1,1,0,0,1,515.849,76.846ZM421.5,64.059a1,1,0,0,1-.91-1.072V56.166a1,1,0,0,1,.91-1.064h.007a1,1,0,0,1,.9,1.08v6.806A1,1,0,0,1,421.5,64.059ZM95.26,62a1,1,0,0,1-.91-1.072V56.537c0-.672-.011-1.352-.031-2.022A1.016,1.016,0,0,1,95.2,53.4a.985.985,0,0,1,.943,1.033c.021.7.032,1.4.032,2.1v4.388A1,1,0,0,1,95.26,62Zm115.989-6.823h-.04a1.018,1.018,0,0,1-.87-1.117c.08-2.186.268-4.385.561-6.535a.942.942,0,0,1,1.042-.889,1.065,1.065,0,0,1,.755,1.228c-.281,2.069-.463,4.185-.54,6.288A.993.993,0,0,1,211.249,55.174ZM305.4,53.122a.986.986,0,0,1-.906-.987c-.142-2.1-.39-4.2-.736-6.26a1.078,1.078,0,0,1,.716-1.26.927.927,0,0,1,1.07.843c.36,2.137.617,4.326.765,6.506a1.032,1.032,0,0,1-.835,1.154A.7.7,0,0,1,305.4,53.122ZM1.876,46.373a.781.781,0,0,1-.184-.022,1.081,1.081,0,0,1-.708-1.266,64.7,64.7,0,0,1,1.439-6.347.888.888,0,0,1,1.15-.681,1.124,1.124,0,0,1,.578,1.355,62.239,62.239,0,0,0-1.384,6.105A.961.961,0,0,1,1.876,46.373Zm512.7-1.655a.954.954,0,0,1-.885-.824,61.731,61.731,0,0,0-1.545-6.056,1.134,1.134,0,0,1,.543-1.375.88.88,0,0,1,1.168.639,64.321,64.321,0,0,1,1.605,6.3,1.094,1.094,0,0,1-.675,1.291A.787.787,0,0,1,514.572,44.718Zm-87.954-12.31a.8.8,0,0,1-.412-.117,1.169,1.169,0,0,1-.4-1.442,59.94,59.94,0,0,1,2.816-5.667.83.83,0,0,1,1.262-.3,1.194,1.194,0,0,1,.253,1.486,57.651,57.651,0,0,0-2.71,5.453A.9.9,0,0,1,426.618,32.407ZM89.466,30.9a.9.9,0,0,1-.8-.557,56.871,56.871,0,0,0-2.852-5.355,1.2,1.2,0,0,1,.214-1.5.826.826,0,0,1,1.269.253,59.184,59.184,0,0,1,2.964,5.566,1.177,1.177,0,0,1-.359,1.456A.8.8,0,0,1,89.466,30.9ZM220.09,25.143a.817.817,0,0,1-.531-.2,1.2,1.2,0,0,1-.206-1.5,56.524,56.524,0,0,1,3.518-5.1.817.817,0,0,1,1.286-.068,1.211,1.211,0,0,1,.058,1.515,54.136,54.136,0,0,0-3.385,4.9A.875.875,0,0,1,220.09,25.143ZM295.62,23.5a.867.867,0,0,1-.719-.413,53.353,53.353,0,0,0-3.537-4.755,1.212,1.212,0,0,1,.011-1.516.817.817,0,0,1,1.287.012,55.639,55.639,0,0,1,3.675,4.941,1.2,1.2,0,0,1-.159,1.5A.823.823,0,0,1,295.62,23.5ZM14.671,18.386a.842.842,0,0,1-.643-.313,1.21,1.21,0,0,1,0-1.516,52.248,52.248,0,0,1,4.158-4.378.821.821,0,0,1,1.279.172,1.205,1.205,0,0,1-.146,1.506,50.266,50.266,0,0,0-4,4.213A.843.843,0,0,1,14.671,18.386ZM501.052,17.2a.836.836,0,0,1-.624-.293,49.643,49.643,0,0,0-4.108-4.067,1.2,1.2,0,0,1-.184-1.5.824.824,0,0,1,1.274-.218,51.518,51.518,0,0,1,4.268,4.226,1.211,1.211,0,0,1,.037,1.516A.848.848,0,0,1,501.052,17.2ZM445.232,9.38a.9.9,0,0,1-.791-.539,1.182,1.182,0,0,1,.337-1.464,45.629,45.629,0,0,1,4.994-2.933.865.865,0,0,1,1.2.563,1.151,1.151,0,0,1-.479,1.407,43.874,43.874,0,0,0-4.8,2.822A.8.8,0,0,1,445.232,9.38ZM70.261,8.555a.8.8,0,0,1-.428-.126A43.274,43.274,0,0,0,64.96,5.783a1.141,1.141,0,0,1-.516-1.389.873.873,0,0,1,1.18-.607,45.065,45.065,0,0,1,5.066,2.75,1.174,1.174,0,0,1,.375,1.451A.9.9,0,0,1,70.261,8.555Zm171.2-2.832a.926.926,0,0,1-.85-.688,1.139,1.139,0,0,1,.523-1.386,42.933,42.933,0,0,1,5.318-1.994.909.909,0,0,1,1.107.774,1.1,1.1,0,0,1-.657,1.3,41.347,41.347,0,0,0-5.115,1.919A.781.781,0,0,1,241.466,5.723Zm32.188-.7a.789.789,0,0,1-.294-.058,40.754,40.754,0,0,0-5.169-1.692,1.085,1.085,0,0,1-.7-1.275.923.923,0,0,1,1.082-.822,42.5,42.5,0,0,1,5.374,1.76,1.127,1.127,0,0,1,.566,1.361A.934.934,0,0,1,273.653,5.023ZM38.392,3.219a.96.96,0,0,1-.89-.853,1.083,1.083,0,0,1,.7-1.269A41.472,41.472,0,0,1,43.723.131a.967.967,0,0,1,.988.972,1.037,1.037,0,0,1-.825,1.164,39.814,39.814,0,0,0-5.307.93A.782.782,0,0,1,38.392,3.219ZM476.949,2.9a.784.784,0,0,1-.159-.017,39.814,39.814,0,0,0-5.329-.738,1.025,1.025,0,0,1-.855-1.133A.975.975,0,0,1,471.568,0a41.4,41.4,0,0,1,5.538.767,1.071,1.071,0,0,1,.738,1.243A.967.967,0,0,1,476.949,2.9Z"
         fill="#fff" />
    </g>
    <g
       id="Group_119"
       data-name="Group 119"
       transform="translate(5062.001 1399.49) rotate(90)">
      <rect
         id="Rectangle_38"
         data-name="Rectangle 38"
         width="8.296"
         height="8.296"
         transform="translate(0 0)"
         fill="#fff" />
      <rect
         id="Rectangle_59"
         data-name="Rectangle 59"
         width="8.296"
         height="9.482"
         transform="translate(0 30.815)"
         fill="#fff" />
      <rect
         id="Rectangle_47"
         data-name="Rectangle 47"
         width="8.296"
         height="7.111"
         transform="translate(0 16.593)"
         fill="#fff" />
      <rect
         id="Rectangle_52"
         data-name="Rectangle 52"
         width="8.296"
         height="8.296"
         transform="translate(0 47.408)"
         fill="#fff" />
      <rect
         id="Rectangle_41"
         data-name="Rectangle 41"
         width="8.296"
         height="8.296"
         transform="translate(0 8.296)"
         fill="#3d3d3d" />
      <rect
         id="Rectangle_56"
         data-name="Rectangle 56"
         width="8.296"
         height="7.111"
         transform="translate(0 40.297)"
         fill="#3d3d3d" />
      <rect
         id="Rectangle_44"
         data-name="Rectangle 44"
         width="8.296"
         height="7.111"
         transform="translate(0 23.704)"
         fill="#3d3d3d" />
      <rect
         id="Rectangle_53"
         data-name="Rectangle 53"
         width="8.296"
         height="8.296"
         transform="translate(0 55.704)"
         fill="#3d3d3d" />
      <rect
         id="Rectangle_40"
         data-name="Rectangle 40"
         width="7.111"
         height="8.296"
         transform="translate(16.593 0)"
         fill="#fff" />
      <rect
         id="Rectangle_60"
         data-name="Rectangle 60"
         width="7.111"
         height="9.482"
         transform="translate(16.593 30.815)"
         fill="#fff" />
      <rect
         id="Rectangle_48"
         data-name="Rectangle 48"
         width="7.111"
         height="7.111"
         transform="translate(16.593 16.593)"
         fill="#fff" />
      <rect
         id="Rectangle_54"
         data-name="Rectangle 54"
         width="7.111"
         height="8.296"
         transform="translate(16.593 47.408)"
         fill="#fff" />
      <rect
         id="Rectangle_42"
         data-name="Rectangle 42"
         width="7.111"
         height="8.296"
         transform="translate(16.593 8.296)"
         fill="#3d3d3d" />
      <rect
         id="Rectangle_57"
         data-name="Rectangle 57"
         width="7.111"
         height="7.111"
         transform="translate(16.593 40.297)"
         fill="#3d3d3d" />
      <rect
         id="Rectangle_45"
         data-name="Rectangle 45"
         width="7.111"
         height="7.111"
         transform="translate(16.593 23.704)"
         fill="#3d3d3d" />
      <rect
         id="Rectangle_50"
         data-name="Rectangle 50"
         width="7.111"
         height="8.296"
         transform="translate(16.593 55.704)"
         fill="#3d3d3d" />
      <rect
         id="Rectangle_39"
         data-name="Rectangle 39"
         width="8.296"
         height="8.296"
         transform="translate(8.296 0)"
         fill="#3d3d3d" />
      <rect
         id="Rectangle_61"
         data-name="Rectangle 61"
         width="8.296"
         height="9.482"
         transform="translate(8.296 30.815)"
         fill="#3d3d3d" />
      <rect
         id="Rectangle_49"
         data-name="Rectangle 49"
         width="8.296"
         height="7.111"
         transform="translate(8.296 16.593)"
         fill="#3d3d3d" />
      <rect
         id="Rectangle_55"
         data-name="Rectangle 55"
         width="8.296"
         height="8.296"
         transform="translate(8.296 47.408)"
         fill="#3d3d3d" />
      <rect
         id="Rectangle_43"
         data-name="Rectangle 43"
         width="8.296"
         height="8.296"
         transform="translate(8.296 8.296)"
         fill="#fff" />
      <rect
         id="Rectangle_58"
         data-name="Rectangle 58"
         width="8.296"
         height="7.111"
         transform="translate(8.296 40.297)"
         fill="#fff" />
      <rect
         id="Rectangle_46"
         data-name="Rectangle 46"
         width="8.296"
         height="7.111"
         transform="translate(8.296 23.704)"
         fill="#fff" />
      <rect
         id="Rectangle_51"
         data-name="Rectangle 51"
         width="8.296"
         height="8.296"
         transform="translate(8.296 55.704)"
         fill="#fff" />
    </g>
    <g
       id="Group_116"
       data-name="Group 116"
       transform="translate(5851.257 1050) rotate(90)">
      <g
         transform="matrix(0, -1, 1, 0, -5.5, 861.25)"
         filter="url(#Path_550)"
         id="g46">
        <path
           id="Path_550-2"
           data-name="Path 550"
           d="M495.071,0C454,0,420.589,39.156,420.589,87.285v74.72c0,12.839-8.913,23.284-19.869,23.284H379.126c-10.955,0-19.868-10.445-19.868-23.284V87.285C359.258,39.156,325.846,0,284.776,0s-74.482,39.156-74.482,87.285v74.72c0,12.839-8.913,23.284-19.868,23.284H168.832c-10.955,0-19.868-10.445-19.868-23.284V87.285C148.964,39.156,115.551,0,74.482,0S0,39.156,0,87.285V765.464c0,48.129,33.412,87.285,74.482,87.285h420.59c41.069,0,74.481-39.156,74.481-87.285V87.285C569.553,39.156,536.14,0,495.071,0Zm19.868,765.464c0,12.839-8.913,23.284-19.868,23.284H74.482c-10.955,0-19.868-10.445-19.868-23.284V87.285C54.613,74.447,63.526,64,74.482,64S94.35,74.447,94.35,87.285v74.72c0,48.129,33.412,87.285,74.482,87.285h21.594c41.069,0,74.482-39.156,74.482-87.285V87.285c0-12.839,8.913-23.284,19.868-23.284s19.868,10.445,19.868,23.284v74.72c0,48.129,33.412,87.285,74.482,87.285h21.594c41.069,0,74.482-39.156,74.482-87.285V87.285C475.2,74.447,484.115,64,495.071,64s19.868,10.445,19.868,23.284Z"
           transform="translate(861.25 5.5) rotate(90)"
           fill="none"
           stroke="#24ddd8"
           stroke-miterlimit="10"
           stroke-width="8" />
      </g>
    </g>
    <text
       id="START_FINISH"
       data-name="START/FINISH"
       transform="translate(5086 1416)"
       font-size="13"
       font-family="FingerPaint-Regular, Finger Paint">
      <tspan
         x="0"
         y="0"
         id="tspan49">START/FINISH</tspan>
    </text>
    <path
       id="Polygon_6"
       data-name="Polygon 6"
       d="M5.5,0,11,10H0Z"
       transform="translate(5036.427 1485.005) rotate(180)"
       fill="#fff" />
    <path
       id="Polygon_8"
       data-name="Polygon 8"
       d="M5.5,0,11,10H0Z"
       transform="translate(5410.927 1586.505) rotate(90)"
       fill="#fff" />
    <path
       id="Polygon_7"
       data-name="Polygon 7"
       d="M5.5,0,11,10H0Z"
       transform="translate(5447.927 1082.505) rotate(-90)"
       fill="#fff" />
    <path
       id="Polygon_10"
       data-name="Polygon 10"
       d="M5.5,0,11,10H0Z"
       transform="translate(5719.927 1503.505) rotate(-90)"
       fill="#fff" />
    <path
       id="Polygon_9"
       data-name="Polygon 9"
       d="M5.5,0,11,10H0Z"
       transform="translate(5630.859 1234.713) rotate(-7)"
       fill="#fff" />
  </g>
</svg>
