<svg width="138" height="138" viewBox="0 0 138 138" fill="none" xmlns="http://www.w3.org/2000/svg">
<g clip-path="url(#clip0)">
<path d="M131.92 1.66413e-05C127.017 -0.00463377 122.161 0.965431 117.636 2.85382C113.111 4.74222 109.006 7.51127 105.56 11V1.66413e-05H100.22C95.3185 -0.00330843 90.4649 0.9674 85.9414 2.85575C81.418 4.74411 77.3148 7.51247 73.8703 11V1.66413e-05H68.5203C58.706 0.0238259 49.3011 3.93653 42.366 10.881C35.4309 17.8255 31.5309 27.2356 31.5203 37.05V94C30.9503 94 30.3903 93.94 29.8203 93.94C28.3954 93.9369 26.9742 94.0844 25.5803 94.38C23.0485 94.9127 20.644 95.9315 18.5003 97.38C17.7609 95.6343 16.5231 94.1455 14.9419 93.0996C13.3606 92.0538 11.5061 91.4974 9.61031 91.5C8.93794 91.4961 8.2672 91.5665 7.61031 91.71C5.27895 92.1933 3.21037 93.5257 1.80621 95.4485C0.402053 97.3713 -0.237492 99.7473 0.0117546 102.115C0.261001 104.483 1.38125 106.674 3.155 108.262C4.92875 109.85 7.22942 110.723 9.61031 110.71H9.87031C9.42381 113.259 9.47815 115.871 10.0303 118.4C10.5847 120.993 11.6448 123.45 13.1499 125.633C14.6551 127.815 16.5757 129.68 18.8019 131.119C21.0282 132.559 23.5164 133.546 26.1243 134.023C28.7322 134.5 31.4085 134.458 34.0003 133.9C35.3747 133.601 36.715 133.162 38.0003 132.59C41.5444 135.753 46.1303 137.497 50.8803 137.49H117.8C122.953 137.485 127.893 135.436 131.537 131.794C135.181 128.151 137.232 123.212 137.24 118.06V1.66413e-05H131.92ZM131.92 118.06C131.91 121.793 130.422 125.369 127.781 128.008C125.141 130.646 121.563 132.132 117.83 132.14H50.9103C48.5595 132.138 46.2467 131.546 44.1836 130.42C42.1204 129.293 40.3727 127.667 39.1003 125.69C37.2971 127.168 35.1687 128.196 32.8903 128.69C31.8614 128.91 30.8125 129.024 29.7603 129.03C26.3596 129.024 23.0634 127.854 20.42 125.714C17.7766 123.575 15.9452 120.595 15.2303 117.27C14.8093 115.292 14.8093 113.248 15.2303 111.27C15.3383 110.702 15.4819 110.14 15.6603 109.59C15.6794 109.228 15.6492 108.864 15.5703 108.51C15.3683 107.56 14.8455 106.709 14.0898 106.099C13.3341 105.489 12.3915 105.157 11.4203 105.16C11.1181 105.161 10.8167 105.191 10.5203 105.25C10.2284 105.317 9.92982 105.351 9.63031 105.35C8.57799 105.353 7.56216 104.964 6.77946 104.261C5.99675 103.558 5.50284 102.589 5.39333 101.542C5.28381 100.496 5.56648 99.4457 6.18662 98.5955C6.80676 97.7453 7.72026 97.1554 8.75031 96.94C9.04692 96.8836 9.3484 96.8568 9.65031 96.86C10.6179 96.8608 11.5561 97.1925 12.3092 97.8C13.0623 98.4076 13.5849 99.2545 13.7903 100.2C13.9921 101.151 14.5144 102.004 15.27 102.615C16.0255 103.227 16.9682 103.561 17.9403 103.56C18.2425 103.56 18.544 103.53 18.8403 103.47C19.1889 103.393 19.5253 103.268 19.8403 103.1C20.2637 102.71 20.7077 102.343 21.1703 102C22.8147 100.827 24.6838 100.007 26.6603 99.59C27.6827 99.3726 28.725 99.262 29.7703 99.26C32.2331 99.2571 34.6572 99.8726 36.8203 101.05V37.05C36.8203 28.6427 40.1601 20.5796 46.105 14.6347C52.0499 8.68983 60.1129 5.35002 68.5203 5.35002V37.05C68.5203 28.6427 71.8601 20.5796 77.805 14.6347C83.7499 8.68983 91.813 5.35002 100.22 5.35002V37.05C100.22 28.6427 103.56 20.5796 109.505 14.6347C115.45 8.68983 123.513 5.35002 131.92 5.35002V118.06Z" fill="white"/>
<path d="M121.361 87.3706V113.531C121.34 115.656 120.482 117.688 118.973 119.185C117.464 120.683 115.426 121.525 113.301 121.531H110.791V116.241C110.777 114.846 110.214 113.514 109.224 112.532C108.233 111.551 106.895 111 105.501 111.001C104.102 111.001 102.761 111.555 101.771 112.543C100.781 113.532 100.223 114.872 100.221 116.271V121.561H68.5306V116.271C68.5253 114.871 67.9657 113.531 66.9742 112.543C65.9827 111.555 64.6402 111.001 63.2406 111.001V111.001C61.8447 111.008 60.5089 111.57 59.5265 112.562C58.5441 113.554 57.9953 114.895 58.0006 116.291V121.581H55.4506C53.3249 121.575 51.2869 120.733 49.7782 119.235C48.2695 117.738 47.4117 115.706 47.3906 113.581V87.3706C47.3985 85.2353 48.2502 83.1898 49.7601 81.68C51.2699 80.1702 53.3154 79.3185 55.4506 79.3105H58.0006V84.6005C58.0006 85.9992 58.5555 87.3406 59.5436 88.3305C60.5316 89.3204 61.872 89.8779 63.2706 89.8805V89.8805C64.6711 89.8779 66.0136 89.3211 67.0048 88.3318C67.996 87.3424 68.5553 86.001 68.5606 84.6005V79.3105H100.251V84.6005C100.31 85.9624 100.893 87.2489 101.877 88.1916C102.862 89.1344 104.172 89.6606 105.536 89.6606C106.899 89.6606 108.209 89.1344 109.194 88.1916C110.179 87.2489 110.761 85.9624 110.821 84.6005V79.3105H113.331C115.461 79.3263 117.498 80.1815 119.002 81.6905C120.505 83.1995 121.353 85.2405 121.361 87.3706V87.3706Z" fill="white"/>
<path d="M107.771 53.6504H103.241C101.573 53.6504 100.221 55.0025 100.221 56.6704V65.7204C100.221 67.3883 101.573 68.7404 103.241 68.7404H107.771C109.439 68.7404 110.791 67.3883 110.791 65.7204V56.6704C110.791 55.0025 109.439 53.6504 107.771 53.6504Z" fill="white"/>
<path d="M68.52 56.67V65.73C68.52 66.5256 68.2039 67.2887 67.6413 67.8513C67.0787 68.4139 66.3156 68.73 65.52 68.73H61C60.2044 68.73 59.4413 68.4139 58.8787 67.8513C58.3161 67.2887 58 66.5256 58 65.73V56.67C58 55.8743 58.3161 55.1113 58.8787 54.5487C59.4413 53.9861 60.2044 53.67 61 53.67H65.5C65.8956 53.6674 66.2879 53.743 66.6542 53.8926C67.0205 54.0422 67.3536 54.2627 67.6343 54.5416C67.915 54.8204 68.1377 55.152 68.2897 55.5173C68.4418 55.8826 68.52 56.2743 68.52 56.67Z" fill="white"/>
<path d="M63 10.3105C59.7259 11.6462 56.6585 13.4408 53.89 15.6405C51.2587 17.805 49.0077 20.394 47.23 23.3005C45.4483 26.2048 44.1925 29.4004 43.52 32.7405C43.44 33.1605 43.34 33.5805 43.27 34.0005C43.2 34.4205 43.18 34.8605 43.11 35.3005C42.96 36.1405 42.91 37.0605 42.81 37.9605C42.59 39.7605 42.38 41.5605 42.03 43.3605C41.67 41.5605 41.46 39.7605 41.24 37.9605C41.15 37.0505 41.05 36.1805 41.02 35.2205C40.94 34.2856 40.94 33.3455 41.02 32.4105C41.2695 28.5903 42.4505 24.8892 44.46 21.6305C46.451 18.3645 49.1939 15.6216 52.46 13.6305C55.624 11.6245 59.2574 10.48 63 10.3105V10.3105Z" fill="white"/>
<path d="M94.6801 10.3105C91.5767 11.5889 88.655 13.27 85.9901 15.3105C83.4424 17.3169 81.2312 19.7171 79.4401 22.4205C77.6571 25.1315 76.3075 28.1039 75.4401 31.2305C75.2001 32.0205 75.0901 32.8305 74.8801 33.6305C74.6701 34.4305 74.6301 35.2705 74.5001 36.1005C74.2801 37.8205 74.0701 39.5305 73.7101 41.2505C73.3601 39.5305 73.1501 37.8205 72.9301 36.1005C72.8801 35.2305 72.8201 34.3305 72.7901 33.4305C72.7601 32.5305 72.8701 31.6405 73.0001 30.7605C73.4602 27.1495 74.7468 23.6933 76.7601 20.6605C78.7516 17.6131 81.43 15.0751 84.5801 13.2505C87.6362 11.4143 91.116 10.4013 94.6801 10.3105V10.3105Z" fill="white"/>
<path d="M126.38 10.3105C123.277 11.5889 120.355 13.27 117.69 15.3105C115.142 17.3169 112.931 19.7171 111.14 22.4205C109.365 25.1359 108.016 28.107 107.14 31.2305C106.89 32.0205 106.8 32.8305 106.58 33.6305C106.36 34.4305 106.33 35.2705 106.2 36.1005C105.97 37.8205 105.77 39.5305 105.42 41.2505C105.07 39.5305 104.85 37.8205 104.63 36.1005C104.57 35.2305 104.52 34.3305 104.5 33.4305C104.518 32.5379 104.582 31.6468 104.69 30.7605C105.162 27.1493 106.455 23.6941 108.47 20.6605C110.452 17.6089 113.128 15.0697 116.28 13.2505C119.337 11.4168 122.816 10.404 126.38 10.3105V10.3105Z" fill="white"/>
</g>
<defs>
<clipPath id="clip0">
<rect width="137.27" height="137.49" fill="white"/>
</clipPath>
</defs>
</svg>
