<svg id="Capa_1" enable-background="new 0 0 512 512" height="512" viewBox="0 0 512 512" width="512" xmlns="http://www.w3.org/2000/svg"><g><g><g><path d="m145.52 215.34h220.961v238.8h-220.961z" fill="#e2c4ff"/></g></g><g fill="#020288"><path d="m256 53.17c-22.059 0-40.004 17.912-40.004 39.93s17.946 39.93 40.004 39.93c22.059 0 40.005-17.912 40.005-39.93s-17.946-39.93-40.005-39.93zm0 59.859c-11.03 0-20.004-8.94-20.004-19.93 0-10.989 8.974-19.93 20.004-19.93s20.005 8.94 20.005 19.93-8.974 19.93-20.005 19.93z"/><path d="m421.155 106.847-115.679-104.275c-1.837-1.656-4.223-2.572-6.695-2.572h-85.561c-2.473 0-4.858.916-6.695 2.572l-115.68 104.275c-2.104 1.896-3.305 4.596-3.305 7.428v387.725c0 5.522 4.477 10 10 10h316.919c5.522 0 10-4.478 10-10v-387.726c0-2.832-1.201-5.531-3.304-7.427zm-16.696 385.153h-296.918v-373.276l109.521-98.724h77.877l109.521 98.724v373.276z"/><path d="m181.401 271.488c0 5.522 4.477 10 10 10h129.198c5.523 0 10-4.478 10-10 0-5.523-4.477-10-10-10h-129.198c-5.523 0-10 4.478-10 10z"/><path d="m320.599 318.169h-129.198c-5.523 0-10 4.478-10 10s4.477 10 10 10h129.198c5.523 0 10-4.478 10-10s-4.478-10-10-10z"/><path d="m266.216 374.85h-74.815c-5.523 0-10 4.477-10 10 0 5.522 4.477 10 10 10h74.815c5.522 0 10-4.478 10-10 0-5.523-4.477-10-10-10z"/></g></g></svg>