<svg id="Layer_1" data-name="Layer 1" xmlns="http://www.w3.org/2000/svg" viewBox="0 0 429.04 586.22"><defs><style>.cls-1{fill:#24ddd8;}.cls-2{fill:#3d3d3d;}</style></defs><title>Bonk Icon</title><path class="cls-1" d="M639.91,287.49V510.41H551.17V796.75a45.9,45.9,0,1,1-91.79,0V510.41H370.63V287.49Z" transform="translate(-290.75 -263.43)"/><path class="cls-2" d="M505.28,849.65a53,53,0,0,1-52.9-52.9V517.41H363.63V280.49H646.91V517.41H558.17V796.75A53,53,0,0,1,505.28,849.65ZM377.63,503.41h88.74V796.75a38.9,38.9,0,1,0,77.79,0V503.41h88.74V294.49H377.64Z" transform="translate(-290.75 -263.43)"/><path class="cls-1" d="M340,527.47a12.24,12.24,0,0,0,12.24-12.24V282.67A12.24,12.24,0,0,0,340,270.43H310a12.24,12.24,0,0,0-12.24,12.24V515.23A12.24,12.24,0,0,0,310,527.47Z" transform="translate(-290.75 -263.43)"/><path class="cls-2" d="M310,534.47a19.26,19.26,0,0,1-19.24-19.24V282.67A19.24,19.24,0,0,1,310,263.43H340a19.26,19.26,0,0,1,19.24,19.24V515.23A19.24,19.24,0,0,1,340,534.47Zm0-257a5.24,5.24,0,0,0-5.23,5.23V515.23a5.25,5.25,0,0,0,5.24,5.24h30a5.24,5.24,0,0,0,5.24-5.23V282.67a5.25,5.25,0,0,0-5.24-5.24H310Z" transform="translate(-290.75 -263.43)"/><path class="cls-1" d="M670.51,270.43a12.22,12.22,0,0,0-12.23,12.24V515.23a12.23,12.23,0,0,0,12.23,12.24h30a12.24,12.24,0,0,0,12.23-12.24V282.67a12.24,12.24,0,0,0-12.24-12.24Z" transform="translate(-290.75 -263.43)"/><path class="cls-2" d="M700.56,534.47h-30a19.27,19.27,0,0,1-19.23-19.24V282.67a19.22,19.22,0,0,1,19.23-19.24h30a19.26,19.26,0,0,1,19.24,19.24V515.23a19.24,19.24,0,0,1-19.23,19.24Zm-30-257a5.22,5.22,0,0,0-5.23,5.23V515.23a5.25,5.25,0,0,0,5.24,5.24h30a5.2,5.2,0,0,0,3.7-1.54,5.14,5.14,0,0,0,1.53-3.69V282.67a5.25,5.25,0,0,0-5.24-5.24Z" transform="translate(-290.75 -263.43)"/><path class="cls-2" d="M444.21,417.74h-4.7v4.7H397.24v-47h42.27v4.7h4.7v14.09h-4.7v9.4h4.7Zm-18.79-23.49v-9.39H416v9.39Zm0,18.79v-9.39H416V413Z" transform="translate(-290.75 -263.43)"/><path class="cls-2" d="M500.58,417.74h-4.7v4.7H458.3v-4.7h-4.69V380.16h4.69v-4.7h37.58v4.7h4.7ZM481.79,413V384.86h-9.4V413Z" transform="translate(-290.75 -263.43)"/><path class="cls-2" d="M556.94,422.44H538.15V384.86h-9.39v37.58H510v-47h42.27v4.7h4.7Z" transform="translate(-290.75 -263.43)"/><path class="cls-2" d="M613.31,422.44H594.52V403.65h-9.4v18.79H566.33v-47h18.79v18.79h9.4V375.46h18.79v18.79h-4.7v9.4h4.7Z" transform="translate(-290.75 -263.43)"/><path class="cls-2" d="M550.4,685.29v.09a45.9,45.9,0,0,1-91,8.43.06.06,0,0,1,0,0,45.46,45.46,0,0,1-.77-8.39,45.9,45.9,0,0,1,91.8-.09Z" transform="translate(-290.75 -263.43)"/><path class="cls-2" d="M551.17,685.29V796.75a45.9,45.9,0,1,1-91.79,0V693.81a.06.06,0,0,1,0,0v-8.48Z" transform="translate(-290.75 -263.43)"/></svg>