<svg id="Capa_1" enable-background="new 0 0 510 510" height="512" viewBox="0 0 510 510" width="512" xmlns="http://www.w3.org/2000/svg"><g><g><path d="m135 74.6c-7.3 0-52.7 0-60 0v30h60c16.5 0 30 13.5 30 30l7.5 10 7.5-10 7.5-14.8-7.5-24.8c-5.6-6.3-12.5-11.5-20.3-15-7.5-3.5-15.9-5.4-24.7-5.4z" fill="#f0e6e6"/><path d="m195 134.6c0-14.7-5.3-28.7-15-39.6v39.6l7.5 10z" fill="#d2cbd7"/><path d="m120 134.6v60l30 10 30-10 10-30-10-30c-7.3 0-52.7 0-60 0z" fill="#08475e"/><path d="m240 134.6c-7.3 0-52.7 0-60 0v60l30 10 30-10c0-7.2 0-52.7 0-60z" fill="#05303d"/><path d="m55.3 43.8c-14.3-4.8-30.7-10.2-45-15 3.3-10 6.2-18.5 9.5-28.5 14.3 4.8 30.7 10.2 45 15-3.4 10-6.2 18.6-9.5 28.5z" fill="#ffda2d"/><path d="m19.7 178.8c-3.3-10-6.2-18.5-9.5-28.5 14.3-4.8 30.7-10.2 45-15 3.3 10 6.2 18.5 9.5 28.5-14.3 4.8-30.6 10.3-45 15z" fill="#ffda2d"/><path d="m435 194.6-10 60.2 10 60.2c9.1-2.3 65.9-16.5 75-18.8 0-27.6 0-85.5 0-101.7-20.2.1-63.2.1-75 .1z" fill="#624a4f"/><path d="m180 329.6 10-67.5-10-67.5c-10.6 0-77.2 0-87.9 0-50.8 0-92.1 41.3-92.1 92.1 0 39.8 21.8 75.7 56.3 94.3 19.6 10.5 36.4 11.8 37.7 12z" fill="#9d6b5d"/><path d="m248.8 361.6c5.3-1.3 180.9-45.2 186.2-46.5 0-14.6 0-105.8 0-120.5-7.2 0-247.8 0-255 0v135z" fill="#895050"/><path d="m90 419.6c0 49.7 40.3 90 90 90l10-90-10-90c-24.9 0-47.4 10.1-63.6 26.4-16.3 16.3-26.4 38.8-26.4 63.6z" fill="#0a617d"/><path d="m135 419.6c0 24.8 20.2 45 45 45l10-45-10-45c-24.8 0-45 20.2-45 45z" fill="#08475e"/><path d="m180 329.6v180c49.7 0 90-40.3 90-90s-40.3-90-90-90z" fill="#08475e"/><path d="m180 374.6v90c12.4 0 23.7-5 31.8-13.2 17.6-17.6 17.6-46 0-63.6-8.1-8.1-19.4-13.2-31.8-13.2z" fill="#05303d"/></g><g id="XMLID_1_"><path d="m47.8 74.6c0 10.5 0 19.5.1 30-15.1 0-32.3.1-47.4.1 0-10.5 0-19.5-.1-30 15.1-.1 32.3-.1 47.4-.1z" fill="#ffda2d"/></g></g></svg>