<svg id="Capa_1" enable-background="new 0 0 512.24 512.24" height="512" viewBox="0 0 512.24 512.24" width="512" xmlns="http://www.w3.org/2000/svg"><g><path d="m247.797 224.82-107.603 62.124-54.39-94.206c-8.56-14.827-3.48-33.786 11.347-42.347l53.909-31.125c14.827-8.56 33.786-3.48 42.347 11.347z" fill="#afd755"/><path d="m110.804 192.738c-8.56-14.827-3.48-33.786 11.347-42.347l53.909-31.125c.983-.568 1.984-1.075 3-1.523-8.73-3.838-19.108-3.61-28 1.523l-53.909 31.125c-14.827 8.56-19.907 27.52-11.347 42.347l54.39 94.206 18.75-10.825z" fill="#96be4b"/><path d="m137.556 127.063-26.901 15.531-46.593-80.702c-4.289-7.428-1.744-16.927 5.685-21.216 7.428-4.289 16.927-1.744 21.216 5.685z" fill="#afd755"/><path d="m84.062 61.892c-3.826-6.626-2.214-14.9 3.452-19.653-4.86-4.088-11.948-4.922-17.767-1.563-7.428 4.289-9.974 13.787-5.685 21.216l46.593 80.702 15-8.66z" fill="#96be4b"/><path d="m473.56 302.429c-.07-25.69-20.9-46.48-46.6-46.48-.22 0-.45.01-.68.01-6.39-18.1-23.65-31.07-43.94-31.07-6.24 0-12.19 1.23-17.63 3.45.08-1.14.13-2.29.13-3.45 0-25.73-20.86-46.59-46.6-46.59-8.3 0-16.1 2.17-22.85 5.98-8.28-12.94-22.77-21.51-39.27-21.51s-30.99 8.57-39.27 21.51c-6.75-3.81-14.55-5.98-22.85-5.98-25.74 0-46.6 20.86-46.6 46.59 0 .9.03 1.79.08 2.68-4.88-1.73-10.13-2.68-15.61-2.68-20.31 0-37.59 13-43.97 31.14-.87-.05-1.74-.08-2.62-.08-25.7 0-46.53 20.79-46.6 46.48v15.687h108.722l31.062 31.062h148.656l40-31.062h106.44z" fill="#f9f7f8"/><g fill="#efedef"><path d="m224 178.299c8.3 0 16.1 2.17 22.85 5.98 5.646-8.824 14.18-15.615 24.27-19.044-4.707-1.599-9.752-2.466-15-2.466-13.838 0-26.262 6.028-34.795 15.606.885-.05 1.777-.076 2.675-.076z"/><path d="m115.28 255.949c.88 0 1.75.03 2.62.08 4.731-13.453 15.458-24.078 28.969-28.671-4.706-1.596-9.747-2.469-14.999-2.469-20.31 0-37.59 13-43.97 31.14-.87-.05-1.74-.08-2.62-.08-25.7 0-46.53 20.79-46.6 46.48v15.687h30v-15.687c.07-25.69 20.9-46.48 46.6-46.48z"/><path d="m161.87 224.889c5.48 0 10.73.95 15.61 2.68-.05-.89-.08-1.78-.08-2.68 0-20.483 13.22-37.88 31.598-44.123-4.707-1.6-9.753-2.467-14.998-2.467-25.74 0-46.6 20.86-46.6 46.59 0 .763.022 1.518.059 2.273 4.538-1.476 9.382-2.273 14.411-2.273z"/></g><path d="m23.153 333.727 31.062 139.662h403.81l31.062-139.662v-15.611h-121.967l-40 31.062h-148.656l-31.062-31.062h-124.249z" fill="#00c3ff"/><path d="m367.12 318.116-40 31.062h-148.656l-31.062-31.062h-124.249v15.612l4.448 20 26.614 119.662h30l-26.614-119.663h75.034l20.62 20.621c6.733 6.733 15.686 10.442 25.208 10.442h155.312c9.522 0 18.475-3.708 25.208-10.442l20.62-20.621h105.034l4.448-20v-15.612h-121.965z" fill="#00aaf0"/><path d="m333.776 364.79h-155.312c-4.151 0-8.131-1.649-11.066-4.584l-26.478-26.479h-133.417v-31.3h139.899c4.151 0 8.131 1.649 11.066 4.584l26.478 26.479h142.347l26.478-26.479c2.935-2.935 6.916-4.584 11.066-4.584h139.899v31.3h-133.416l-26.478 26.479c-2.935 2.935-6.915 4.584-11.066 4.584z" fill="#00c3ff"/><path d="m7.503 302.428h30v31.3h-30z" fill="#00aaf0"/><g><g><path d="m261.423 261.294c-2.929 2.929-7.678 2.929-10.607 0-2.929-2.929-2.929-7.678 0-10.607 2.929-2.929 7.678-2.929 10.607 0 2.929 2.93 2.929 7.678 0 10.607z"/></g><g><path d="m199.299 307.888c-2.929 2.929-7.678 2.929-10.607 0-2.929-2.929-2.929-7.678 0-10.607 2.929-2.929 7.678-2.929 10.607 0 2.929 2.929 2.929 7.678 0 10.607z"/></g><g><path d="m214.83 261.294c-2.929 2.929-7.678 2.929-10.607 0-2.929-2.929-2.929-7.678 0-10.607 2.929-2.929 7.678-2.929 10.607 0 2.929 2.93 2.929 7.678 0 10.607z"/></g><g><path d="m137.174 261.277c-2.929 2.929-7.678 2.929-10.607 0-2.929-2.929-2.929-7.678 0-10.607 2.929-2.929 7.678-2.929 10.607 0 2.929 2.929 2.929 7.678 0 10.607z"/></g><g><path d="m199.299 230.232c-2.929 2.929-7.678 2.929-10.607 0-2.929-2.929-2.929-7.678 0-10.607 2.929-2.929 7.678-2.929 10.607 0 2.929 2.929 2.929 7.678 0 10.607z"/></g><g><path d="m354.61 261.294c-2.929 2.929-7.678 2.929-10.607 0-2.929-2.929-2.929-7.678 0-10.607 2.929-2.929 7.678-2.929 10.607 0 2.929 2.93 2.929 7.678 0 10.607z"/></g><g><path d="m323.548 292.357c-2.929 2.929-7.678 2.929-10.607 0-2.929-2.929-2.929-7.678 0-10.607 2.929-2.929 7.678-2.929 10.607 0 2.929 2.929 2.929 7.678 0 10.607z"/></g><g><path d="m292.486 230.232c-2.929 2.929-7.678 2.929-10.607 0-2.929-2.929-2.929-7.678 0-10.607 2.929-2.929 7.678-2.929 10.607 0 2.929 2.929 2.929 7.678 0 10.607z"/></g><g><path d="m245.892 214.701c-2.929 2.929-7.678 2.929-10.607 0-2.929-2.929-2.929-7.678 0-10.607 2.929-2.929 7.678-2.929 10.607 0 2.929 2.929 2.929 7.678 0 10.607z"/></g><g><path d="m416.735 276.825c-2.929 2.929-7.678 2.929-10.607 0-2.929-2.929-2.929-7.678 0-10.607 2.929-2.929 7.678-2.929 10.607 0 2.929 2.93 2.929 7.678 0 10.607z"/></g><g><path d="m504.74 294.931h-24.218c-3.519-24.794-23.932-44.251-49.145-46.303-10.222-21.93-35.729-34.858-59.426-30.243-4.155-34.513-41.705-56.842-74.196-43.567-18.085-21.854-52.456-25.66-74.877-8.161l-22.974-39.797c-10.615-18.379-34.209-24.696-52.594-14.085l-7.004 4.043-13.511-23.398c-2.071-3.587-6.659-4.814-10.246-2.745-3.587 2.072-4.816 6.659-2.745 10.246l13.509 23.394-13.91 8.031-42.848-74.206c-2.05-4.47-1.068-8.125 2.948-10.966 4.056-2.114 7.71-1.135 10.962 2.937l12.99 22.5c2.072 3.588 6.659 4.817 10.245 2.745 3.587-2.071 4.816-6.658 2.745-10.245l-12.992-22.504c-6.049-10.46-20.986-14.47-31.447-8.424-11.506 8.154-14.319 18.64-8.441 31.459l42.849 74.205-7.014 4.049c-18.386 10.613-24.709 34.207-14.095 52.596l18.871 32.687c-6.419 5.106-11.698 11.677-15.289 19.323-26.139 1.145-47.559 20.974-51.171 46.43h-24.216c-4.142 0-7.5 3.358-7.5 7.5v31.3c0 4.142 3.358 7.5 7.5 7.5h9.635l29.764 133.788c.763 3.431 3.806 5.871 7.321 5.871h296.91c4.142 0 7.5-3.358 7.5-7.5s-3.358-7.5-7.5-7.5h-290.895l-27.733-124.66h105.312l24.274 24.264c4.367 4.382 10.182 6.795 16.372 6.795h155.32c6.19 0 12.005-2.413 16.362-6.786l24.284-24.274h105.312l-27.733 124.66h-68.185c-4.142 0-7.5 3.358-7.5 7.5s3.358 7.5 7.5 7.5h74.2c3.515 0 6.558-2.44 7.321-5.871l29.764-133.789h9.635c4.142 0 7.5-3.358 7.5-7.5v-31.3c0-4.141-3.358-7.499-7.5-7.499zm-412.444-105.94c-6.479-11.225-2.62-25.627 8.604-32.105l53.91-31.12c11.226-6.478 25.627-2.622 32.105 8.594l22.292 38.615c-6.504-1.874-13.07-2.539-19.697-1.993l-8.973-15.539c-7.971-11.237-18.216-13.983-30.736-8.239l-27.817 16.059c-11.241 7.971-13.987 18.216-8.239 30.736l13.609 23.578c-5.673.475-11.149 1.838-16.262 3.97zm49.157 23.007-14.722-25.504c-1.915-4.171-.999-7.583 2.748-10.237l27.821-16.061c4.173-1.915 7.588-1 10.245 2.746l6.695 11.593c-16.183 6.371-28.58 20.326-32.787 37.463zm355.787 114.233h-125.92c-1.989 0-3.896.79-5.302 2.196l-26.49 26.479c-1.533 1.538-3.574 2.384-5.748 2.384h-155.32c-2.174 0-4.215-.847-5.758-2.394l-26.48-26.47c-1.406-1.406-3.313-2.196-5.302-2.196h-125.92v-16.3h132.4c2.177 0 4.228.85 5.767 2.383l26.48 26.48c1.406 1.407 3.314 2.197 5.303 2.197h54.83c4.142 0 7.5-3.358 7.5-7.5s-3.358-7.5-7.5-7.5h-51.724l-24.292-24.292c-4.379-4.364-10.191-6.768-16.365-6.768h-100.471c3.752-18.876 21.337-32.521 40.543-31.415 3.336.192 6.396-1.847 7.504-4.999 6.979-19.842 30.408-30.825 49.999-23.88 6.006 1.074 9.337-1.422 9.994-7.488-1.655-29.653 31.55-51.379 58.195-36.34 3.466 1.958 7.858.865 10.004-2.489 14.747-23.048 50.699-23.764 65.905 0 2.145 3.353 6.537 4.445 10.004 2.489 26.681-15.06 60.25 7.067 58.152 37.003.672 6.31 4.11 8.8 10.315 7.47 20.362-8.309 44.328 2.393 51.665 23.172 1.283 3.635 4.652 5.153 7.752 4.993 18.931 0 34.79 13.562 38.352 31.482h-100.472c-6.174 0-11.986 2.404-16.374 6.777l-24.283 24.283h-51.723c-4.142 0-7.5 3.358-7.5 7.5s3.358 7.5 7.5 7.5h54.83c1.989 0 3.897-.79 5.303-2.197l26.471-26.471c1.548-1.542 3.599-2.392 5.776-2.392h132.4z"/><path d="m318.245 108.18c5.346 1.363 6.611 4.417 3.795 9.161l-9.098 9.098c-2.929 2.929-2.929 7.678 0 10.606 3.535 2.929 7.071 2.929 10.606 0l9.098-9.098c12.612-12.611 3.432-34.767-14.401-34.767-5.346-1.363-6.611-4.417-3.795-9.161l9.098-9.098c2.929-2.929 2.929-7.678 0-10.606-2.929-2.929-7.678-2.929-10.606 0l-9.098 9.098c-12.612 12.61-3.433 34.767 14.401 34.767z"/><path d="m380.369 129.497c5.346 1.363 6.611 4.417 3.795 9.161l-9.098 9.098c-2.929 2.929-2.929 7.677 0 10.606 3.535 2.929 7.071 2.929 10.606 0l9.098-9.098c12.611-12.611 3.433-34.768-14.401-34.768-5.346-1.363-6.611-4.417-3.795-9.161l9.098-9.098c2.929-2.929 2.929-7.678 0-10.606-2.929-2.929-7.678-2.929-10.606 0l-9.098 9.098c-12.611 12.611-3.433 34.768 14.401 34.768z"/></g></g></g></svg>