<?xml version="1.0" encoding="utf-8"?>
<!-- Generator: Adobe Illustrator 24.3.0, SVG Export Plug-In . SVG Version: 6.00 Build 0)  -->
<svg version="1.1" id="Layer_1" xmlns="http://www.w3.org/2000/svg" xmlns:xlink="http://www.w3.org/1999/xlink" x="0px" y="0px"
	 viewBox="0 0 2000 2000" style="enable-background:new 0 0 2000 2000;" xml:space="preserve">
<style type="text/css">
	.st0{opacity:0.3;fill:#6D6D6D;}
	.st1{fill:#53C7E3;}
	.st2{fill:#043F67;}
	.st3{fill:#18A4D4;}
	.st4{fill:#FFFFFF;}
	.st5{fill:#2DEAD4;}
	.st6{fill:#282D29;}
	.st7{opacity:0.5;}
	.st8{fill:#783F29;}
	.st9{fill:#212447;}
</style>
<g>
	<ellipse class="st0" cx="986.88" cy="1598.12" rx="520.46" ry="66.55"/>
	<path class="st1" d="M769.58,1396.78h88.59v143.2c-0.75,11.28,4.74,68.46-44.29,70.89c-51.79,2.56-199.78,18.65-199.73-37.65
		c-0.65-52.97,97.74-53.02,138.12-55.6c11.98-0.77,17.6-3.47,17.32-18.75V1396.78z"/>
	<path class="st2" d="M723.53,1620.43c-42.38,0-84.82-4.5-103.97-22.48c-7.23-6.79-10.89-15.11-10.88-24.74
		c-0.66-53.54,85.32-58.01,131.52-60.41c4.28-0.22,8.22-0.43,11.72-0.65c11.89-0.76,12.37-3.57,12.2-13.19V1391.3h99.53
		l-0.01,149.04c-0.07,1.03-0.08,2.72-0.09,4.67c-0.1,17.04-0.38,68.89-49.39,71.32c-5.39,0.27-11.83,0.68-19.03,1.14
		C774.71,1618.79,749.13,1620.43,723.53,1620.43z M775.05,1402.25v96.62c0.35,18.93-8.33,23.31-22.44,24.21
		c-3.54,0.23-7.53,0.43-11.85,0.66c-42.52,2.21-121.68,6.33-121.15,49.42c-0.01,6.65,2.43,12.13,7.43,16.83
		c27.26,25.59,118.4,19.73,167.37,16.58c7.27-0.47,13.76-0.88,19.19-1.15c34.27-1.7,38.84-33.2,38.99-60.45
		c0.01-2.12,0.02-3.81,0.1-5.15v-137.56H775.05z"/>
	<path class="st3" d="M789.01,1583.75c49.04-2.44,43.55-59.62,44.3-70.9v-110.43h19.21v137.37c-0.07,1.33-0.09,3.03-0.09,5.15
		c-0.16,27.19-4.7,58.58-38.83,60.28c-5.42,0.27-11.93,0.68-19.19,1.15c-48.95,3.14-140.03,8.99-167.24-16.52
		c-3.46-3.25-5.67-6.87-6.69-11.01C666.76,1594.22,752.19,1585.56,789.01,1583.75z"/>
	<path class="st1" d="M1177.34,1396.78h-88.59v143.2c0.75,11.28-4.74,68.46,44.29,70.89c51.79,2.56,199.78,18.65,199.73-37.65
		c0.65-52.97-97.74-53.02-138.12-55.6c-11.98-0.77-17.6-3.47-17.32-18.75V1396.78z"/>
	<path class="st2" d="M1223.4,1620.43c-25.61,0-51.19-1.64-71.59-2.96c-7.2-0.46-13.64-0.88-19.03-1.14
		c-49.01-2.43-49.3-54.28-49.4-71.32c-0.01-1.96-0.02-3.65-0.09-4.67l-0.01-0.36V1391.3h99.53v107.56
		c-0.22,11.97,2.55,12.68,12.2,13.29c3.5,0.22,7.44,0.43,11.72,0.65c46.2,2.4,132.18,6.87,131.52,60.48
		c0.01,9.56-3.65,17.88-10.88,24.67C1308.22,1615.93,1265.77,1620.43,1223.4,1620.43z M1094.22,1539.81
		c0.08,1.33,0.09,3.03,0.1,5.15c0.29,51.88,20.99,59.56,38.99,60.45c5.43,0.27,11.92,0.69,19.19,1.15
		c48.96,3.15,140.1,9.01,167.37-16.58c5.01-4.7,7.44-10.18,7.43-16.75c0.53-43.16-78.62-47.28-121.15-49.49
		c-4.32-0.22-8.31-0.43-11.85-0.66c-14.11-0.9-22.79-5.29-22.44-24.32v-96.52h-77.65V1539.81z"/>
	<path class="st3" d="M1326.45,1578.85c-1.02,4.14-3.23,7.75-6.69,11.01c-27.21,25.52-118.29,19.66-167.24,16.52
		c-7.25-0.47-13.76-0.88-19.19-1.15c-34.13-1.7-38.67-33.09-38.83-60.28c0-2.13-0.02-3.82-0.09-5.15v-137.37h19.21v110.43
		c0.75,11.28-4.75,68.46,44.3,70.9C1194.73,1585.56,1280.16,1594.22,1326.45,1578.85z"/>
	<path class="st1" d="M551.11,1143.44c-31.15-9.01-140.28,72.21-129.01,92.42s39.42,89.92,1.61,95.99
		c-23.81,3.83-40.77-20.5-40.04-49.66c-16.53,31.75-55.95,38.6-69.48,16.72c-14.69-23.76,26.74-53.41,26.74-53.41
		s-73.36,9.23-56.56-33.75c12.99-30.47,92.17-8.47,92.17-8.47c35.85-47.08,156.3-123.81,156.3-123.81S602.2,1087.23,551.11,1143.44z
		"/>
	<path class="st2" d="M418.76,1337.72c-8.36,0-16.17-3-22.84-8.83c-8.3-7.26-14.06-18.32-16.47-31.08
		c-10.33,11.51-24.45,18.72-38.8,19.25c-13.42,0.49-24.8-5.08-31.11-15.28c-11.24-18.19,3.52-38.01,15.58-49.91
		c-14.63-0.02-34.81-2.38-43.95-14.13c-5.67-7.28-6.3-16.69-1.89-27.99c13.28-31.17,77.78-17.12,95.19-12.69
		c38.41-47.4,150.59-119.12,155.44-122.21c1.05-0.67,2.31-0.96,3.55-0.82c1.32,0.15,32.5,3.86,40.22,24.32
		c5.02,13.32-1.21,29.72-18.52,48.77c-1.4,1.54-3.56,2.16-5.57,1.57c-17.93-5.18-86.68,34.03-115.71,70.53
		c-7.1,8.92-7.44,13.18-7,13.97c5.04,9.03,12.13,25.27,16.6,41.2c5.99,21.31,6.36,37.61,1.1,48.47c-3.84,7.93-10.76,12.9-20,14.39
		C422.62,1337.57,420.68,1337.72,418.76,1337.72z M383.68,1276.71c0.45,0,0.91,0.06,1.37,0.17c2.46,0.64,4.17,2.89,4.1,5.44
		c-0.4,15.76,4.96,30.45,13.98,38.33c5.66,4.95,12.48,6.95,19.72,5.79c5.8-0.93,9.58-3.59,11.89-8.36
		c8.86-18.28-6.97-60.85-17.41-79.57c-3.54-6.35-0.93-14.9,7.99-26.11c24.7-31.06,93.95-78.21,123.76-74.91
		c12.63-14.52,17.6-26.68,14.37-35.27c-4.09-10.88-21.1-15.73-29.34-17.07c-14.68,9.48-120.63,78.65-153.21,121.43
		c-1.36,1.78-3.67,2.55-5.82,1.96c-19.35-5.36-76.61-15.9-85.67,5.35c-2.89,7.39-2.78,13.04,0.39,17.12
		c8.93,11.48,39.45,10.43,50.46,9.05c2.48-0.31,4.86,1.1,5.77,3.43c0.91,2.33,0.13,4.98-1.9,6.44
		c-0.37,0.27-36.91,27.26-25.27,46.08c4.24,6.87,11.82,10.43,21.4,10.1c15.36-0.57,30.5-10.96,38.58-26.47
		C379.78,1277.82,381.67,1276.71,383.68,1276.71z"/>
	<g>
		<path class="st3" d="M416.71,1238.86c6.39,11.46,14.83,31.87,18.3,50.08c-1.5-3.69-3.15-7.3-4.89-10.85
			c-0.75-1.52-1.53-3-2.33-4.48c-0.06-0.11-0.13-0.21-0.19-0.32c-0.04-0.08-0.1-0.18-0.14-0.26c-0.26-0.35-0.49-0.73-0.72-1.07
			c-1.96-2.9-4.06-5.67-5.96-8.61c-4.52-7.04-10.47-14.54-11.72-22.92c-1.36-9.11-0.83-17.09,3.67-25.13
			c3.34-5.93,7.85-12.49,12.43-17.49c4.86-5.29,11.23-11.52,16.43-16.5c18.39-17.68,41.19-30.59,63.46-42.99
			c6.4-3.55,13.92-1.52,19.21,2.92c-34.81,12.71-82.04,48.83-99.49,70.75C415.66,1223.45,413.01,1232.24,416.71,1238.86z"/>
	</g>
	<path class="st1" d="M1459.33,1095.53c31.96-5.49,131.38,87.36,117.93,106.2c-13.45,18.83-49.18,84.98-12.28,95.22
		c23.24,6.45,42.8-15.84,45.31-44.9c12.9,33.39,51.31,44.58,67.19,24.34c17.24-21.98-20.63-56.05-20.63-56.05
		s71.88,17.33,59.97-27.25c-9.52-31.73-90.65-18.67-90.65-18.67c-30.39-50.78-141.56-140.43-141.56-140.43
		S1414.81,1033.99,1459.33,1095.53z"/>
	<path class="st2" d="M1573.05,1303.55c-3.14,0-6.33-0.44-9.54-1.33c-9.02-2.5-15.34-8.22-18.28-16.52
		c-4.02-11.38-1.84-27.54,6.48-48.05c6.22-15.33,15.07-30.68,21.08-39.1c0.53-0.74,0.66-5.01-5.4-14.66
		c-24.78-39.5-88.71-86.12-107.15-82.96c-2.07,0.35-4.14-0.5-5.36-2.19c-15.08-20.85-19.45-37.85-12.98-50.52
		c9.95-19.47,41.34-19.69,42.68-19.69c1.25,0,2.46,0.43,3.43,1.21c4.48,3.61,107.98,87.37,140.88,138.75
		c17.78-2.47,83.44-9.27,93.14,23.04c3.18,11.87,1.5,21.16-4.95,27.76c-10.4,10.65-30.72,10.75-45.25,9.15
		c10.67,13.17,23.13,34.51,9.93,51.34c-7.4,9.44-19.29,13.72-32.61,11.73c-14.2-2.12-27.43-10.86-36.42-23.45
		c-3.82,12.42-10.77,22.77-19.83,29.06C1586.76,1301.38,1580.02,1303.55,1573.05,1303.55z M1462.01,1089.85
		c30.06,0.06,93.57,54.6,114.66,88.22c7.62,12.14,9.26,20.92,5.03,26.84c-12.46,17.44-32.93,57.98-26.15,77.14
		c1.77,5,5.22,8.06,10.89,9.63c7.06,1.96,14.07,0.73,20.24-3.56c9.84-6.83,16.8-20.83,18.16-36.54c0.22-2.54,2.16-4.59,4.68-4.95
		c2.52-0.37,4.95,1.07,5.87,3.44c6.3,16.32,20.19,28.33,35.4,30.6c9.46,1.41,17.4-1.31,22.39-7.66
		c13.66-17.42-19.65-48.3-19.99-48.61c-1.86-1.68-2.34-4.4-1.18-6.61c1.16-2.21,3.69-3.36,6.12-2.77
		c10.79,2.59,40.99,7.03,51.15-3.38c3.61-3.7,4.34-9.3,2.25-17.13c-6.59-21.96-64.67-17.86-84.5-14.68
		c-2.22,0.36-4.41-0.67-5.56-2.59c-27.61-46.13-125.22-126.66-138.75-137.71c-8.33,0.41-25.79,3.34-31.06,13.7
		C1447.5,1061.38,1451.08,1074.01,1462.01,1089.85z"/>
	<g>
		<path class="st3" d="M1582.28,1205.31c-7.62,10.68-18.28,30.02-23.76,47.73c1.9-3.5,3.95-6.91,6.07-10.24
			c0.91-1.43,1.85-2.81,2.81-4.19c0.07-0.1,0.15-0.2,0.22-0.3c0.05-0.07,0.12-0.17,0.17-0.25c0.3-0.32,0.57-0.67,0.84-0.99
			c2.27-2.66,4.66-5.18,6.88-7.89c5.28-6.49,12.03-13.29,14.2-21.48c2.37-8.91,2.72-16.9-0.85-25.38
			c-2.66-6.27-6.41-13.28-10.4-18.76c-4.24-5.8-9.88-12.7-14.49-18.23c-16.31-19.61-37.54-34.98-58.28-49.78
			c-5.97-4.24-13.67-3.06-19.41,0.76c33.18,16.5,76.1,57.65,91,81.38C1585.04,1190.11,1586.7,1199.14,1582.28,1205.31z"/>
	</g>
	<path class="st1" d="M433.93,1078.45c0,0-128.59-47.17-90.33-161.95c29.68-89.05,123.87-57.34,154.7-114.25
		c30.83-56.92-117.3-145.24-17.09-251.78c112.67-119.79,201.99,69.2,309.21,20.54c90.23-40.95,98.38-237.48,229.42-229.98
		c165.47,9.47,129.35,189.46,207.6,208.43c78.25,18.97,128.74-72.56,214.88-10.42c93.07,67.14-8.09,155.86,53.56,237.28
		c61.65,81.42,159.56,18.82,159.56,163.66c0,146.47-149.2,103.11-201.37,190.85c-52.17,87.74,68.32,233.1-44.04,320.8
		c-92.18,71.95-246.56,2.25-423.43-14.24c-164.53-15.34-357.85,83.19-456.59,0.5c-100.76-84.39-20.01-156.95-9.48-231.85
		C527.29,1158.02,519.37,1111.22,433.93,1078.45z"/>
	<path class="st2" d="M1300.64,1489c-47.6,0-101.45-10.41-159.45-21.62c-49.64-9.6-100.97-19.52-155.09-24.56
		c-64.69-6.03-133.84,5.73-200.7,17.1c-101.55,17.27-197.47,33.58-258.89-17.85c-75.96-63.61-52.87-120.86-30.55-176.22
		c8.41-20.85,16.35-40.55,19.17-60.59c6.22-44.25,0.45-89.62-83.11-121.69c-1.8-0.66-33.71-12.68-61.37-39.1
		c-26.11-24.94-52.9-67.69-32.23-129.71c17.66-52.97,57.47-65.5,92.59-76.55c25.79-8.11,50.14-15.78,62.49-38.58
		c10.44-19.28-3.46-44.48-19.55-73.67c-27.22-49.37-61.09-110.82,3.28-179.26c66.58-70.78,125.61-38.32,182.71-6.92
		c43.25,23.78,84.09,46.25,128.22,26.22c35.83-16.26,58.34-58.67,82.17-103.56c34.31-64.64,69.79-131.49,149.82-126.9
		c103.08,5.9,130.96,76.69,153.36,133.58c14.39,36.55,26.82,68.11,55.22,75c31.14,7.55,57.42-3.28,85.24-14.75
		c38.9-16.03,79.12-32.61,131.55,5.21c53.1,38.31,46.05,84.27,39.23,128.72c-5.6,36.48-11.38,74.21,15.49,109.7
		c23.28,30.75,51.59,39.92,78.97,48.79c42.02,13.62,81.7,26.48,81.71,118.17c0,90.89-55.95,112.06-110.06,132.53
		c-35.35,13.37-71.91,27.2-92.08,61.11c-20.95,35.23-12.53,80.93-3.62,129.3c12.7,68.95,25.84,140.26-41.76,193.01
		C1382.06,1480.38,1343.94,1488.99,1300.64,1489z M949.25,1430.23c12.73,0,25.36,0.52,37.87,1.69
		c54.65,5.09,106.25,15.07,156.15,24.71c108.14,20.9,201.53,38.95,263.4-9.34c62.36-48.68,49.84-116.66,37.73-182.41
		c-9.3-50.46-18.07-98.11,4.98-136.88c22.12-37.2,60.49-51.72,97.61-65.76c52.96-20.03,102.99-38.96,102.99-122.29
		c0-83.73-32.72-94.33-74.14-107.76c-27.64-8.96-58.96-19.11-84.32-52.6c-29.67-39.18-23.52-79.23-17.58-117.96
		c6.9-44.96,12.85-83.79-34.82-118.19c-47.48-34.25-83.18-19.54-120.97-3.96c-28.21,11.63-57.39,23.65-91.99,15.27
		c-33.92-8.22-47.96-43.88-62.82-81.62c-22.36-56.79-47.71-121.16-143.8-126.66c-73.03-4.2-106.84,59.51-139.53,121.11
		c-24.73,46.59-48.08,90.59-87.31,108.4c-49.12,22.29-94.31-2.56-138.02-26.59c-55.9-30.74-108.7-59.78-169.47,4.82
		c-58.92,62.64-28.5,117.8-1.67,166.48c16.91,30.67,32.87,59.63,19.59,84.16c-14.46,26.7-40.87,35.01-68.83,43.81
		c-34.22,10.77-69.6,21.9-85.49,69.57c-15.1,45.31-5.29,85.05,29.17,118.11c26.21,25.14,57.54,36.86,57.86,36.98l0.07,0.03
		c90.99,34.9,96.59,87.04,90.06,133.44c-3,21.37-11.57,42.61-19.86,63.16c-21.82,54.11-42.43,105.23,27.43,163.74
		c57.54,48.19,151.04,32.29,250.03,15.45C838.35,1439.81,894.66,1430.23,949.25,1430.23z"/>
	<g>
		<path class="st4" d="M740.68,969.27c0,0-76.21,5.93-101.39-66.56s21.09-121.03,59.58-134.41c35.69-12.4,86.69-13.43,121.58,31.56
			C862.75,854.44,852.83,954.98,740.68,969.27z"/>
		<path class="st2" d="M737.21,974.82c-16.43,0-80.17-4.37-103.09-70.32c-14.88-42.83-4.77-74.71,6.34-93.9
			c12.6-21.79,33.77-39.53,56.61-47.47c18.82-6.54,83.63-23.45,127.69,33.38c24.79,31.97,31.23,75.76,16.42,111.56
			c-15.18,36.69-50.63,60.35-99.82,66.61l-0.27,0.03C741,974.73,739.61,974.82,737.21,974.82z M741.58,766.34
			c-16.99,0-31.82,3.97-40.91,7.14c-20.44,7.1-39.4,23.03-50.73,42.61c-9.96,17.22-19,45.92-5.48,84.83
			c23.19,66.75,91.28,63.21,95.68,62.91c45.05-5.78,77.35-27.06,90.94-59.92c13.13-31.74,7.12-72.2-14.95-100.68
			C793.62,774.19,765.46,766.34,741.58,766.34z"/>
	</g>
	<g>
		<circle class="st5" cx="761.86" cy="859.37" r="70.68"/>
	</g>
	<g>
		<circle class="st6" cx="775.27" cy="857.39" r="51.28"/>
	</g>
	<g>
		<circle class="st4" cx="798.86" cy="834.1" r="18.12"/>
	</g>
	<g class="st7">
		<path class="st8" d="M775.47,895.87c-16.55,0-29.03-9.98-29.6-10.44c-2.34-1.91-2.7-5.35-0.79-7.7c1.9-2.34,5.34-2.7,7.68-0.8
			c0.24,0.19,12.03,9.45,26.13,7.8c8.89-1.04,17.05-6.25,24.24-15.48c1.86-2.38,5.3-2.81,7.68-0.95c2.38,1.86,2.81,5.29,0.96,7.68
			c-9.1,11.67-19.77,18.28-31.74,19.64C778.48,895.79,776.96,895.87,775.47,895.87z"/>
	</g>
	<g>
		<path class="st4" d="M1152.21,943.65c0,0-76.41,1.92-97.76-71.78s27.4-119.76,66.55-131.1c36.29-10.51,87.28-8.86,119.75,37.9
			C1280.14,835.38,1264.96,935.26,1152.21,943.65z"/>
		<path class="st2" d="M1151.98,949.12c-5.98,0-81.3-1.56-102.78-75.73c-12.61-43.55-0.84-74.85,11.26-93.44
			c13.73-21.09,35.8-37.7,59.02-44.43c19.13-5.54,84.75-19.03,125.77,40.03c23.08,33.23,27.21,77.3,10.54,112.27
			c-17.08,35.84-53.72,57.61-103.17,61.29l-0.27,0.01C1152.32,949.12,1152.2,949.12,1151.98,949.12z M1157.9,740.9
			c-14.54,0-27.2,2.77-35.37,5.13c-20.78,6.02-40.56,20.93-52.9,39.89c-10.85,16.67-21.38,44.86-9.92,84.43
			c19.66,67.87,87.9,67.92,92.25,67.84c45.29-3.41,78.66-22.96,93.96-55.07c14.78-31.01,10.9-71.73-9.66-101.32
			C1213.57,749.12,1182.96,740.9,1157.9,740.9z"/>
	</g>
	<g>
		<circle class="st5" cx="1180.95" cy="830.31" r="70.68"/>
	</g>
	<g>
		<circle class="st6" cx="1189.95" cy="829.46" r="51.28"/>
	</g>
	<g>
		<circle class="st4" cx="1217.83" cy="816.22" r="18.12"/>
	</g>
	<g class="st7">
		<path class="st8" d="M1190.27,867.95c-17.63,0-30.58-11.53-31.14-12.04c-2.24-2.03-2.41-5.49-0.39-7.73
			c2.02-2.24,5.47-2.41,7.71-0.4l0,0c0.12,0.1,11.48,10.06,25.68,9.16c8.94-0.57,17.36-5.35,25.02-14.19
			c1.98-2.29,5.43-2.53,7.72-0.55c2.28,1.98,2.53,5.43,0.55,7.72c-9.69,11.18-20.7,17.22-32.72,17.95
			C1191.88,867.93,1191.07,867.95,1190.27,867.95z"/>
	</g>
	<g>
		<path class="st4" d="M744.74,1159.64c-3.3,12.16-5.98,26.89-6.78,43.97c-3.12,66.05-17.58,68.79-17.58,68.79
			c-28.45,5.33-57.92-47.73-76.75-90.39c12.06,4.73,25.92,4.89,38.75-0.64C682.79,1181.19,705.54,1171.49,744.74,1159.64z"/>
	</g>
	<g>
		<path class="st4" d="M836.9,1136.55c-4.16,11.75-8.03,27.25-9.27,46.16c-3.79,56.87-16.29,58.99-16.29,58.99
			c-25.3,4.23-50.49-44.73-65.93-82.26C769.99,1152.03,800.97,1143.8,836.9,1136.55z"/>
	</g>
	<g>
		<path class="st4" d="M1350.98,1157.74c-20.25,42.77-53.61,100.67-83.33,93.91c0,0-14.31-3.29-14.86-69.36
			c-0.13-15.44-1.86-29-4.27-40.51c-0.02-0.07-0.03-0.14-0.04-0.2c0.03,0.01,0.07,0.02,0.1,0.03c21.1,5.22,42.39,11.39,63.78,18.62
			c5.98,2.02,12.06,2.87,18.01,2.67C1337.59,1162.65,1344.61,1160.86,1350.98,1157.74z"/>
	</g>
	<g>
		<path class="st4" d="M1248.58,1141.61c-0.03,0.06-0.04,0.11-0.06,0.17c-13.13,39.42-35.5,91.39-61.66,88.83
			c0,0-12.9-1.31-20.71-59.07c-2.71-19.95-8.01-35.94-13.27-47.78c31.15,3.99,63.14,9.79,95.6,17.82
			C1248.51,1141.59,1248.55,1141.6,1248.58,1141.61z"/>
	</g>
	<g>
		<path class="st9" d="M1376.83,1128.35c-4.53,13.38-14.08,23.65-25.85,29.39c-6.37,3.12-13.39,4.91-20.61,5.16
			c-5.95,0.2-12.03-0.65-18.01-2.67c-21.39-7.23-42.68-13.4-63.78-18.62c-0.03-0.01-0.07-0.02-0.1-0.03
			c-32.46-8.03-64.45-13.83-95.6-17.82c-107.02-13.71-204.06-6.07-275.76,5.49c-13.99,2.25-27.42,4.71-40.22,7.3
			c-35.93,7.25-66.91,15.48-91.49,22.89c-0.12-0.3-0.24-0.6-0.36-0.9c-0.11,0.36-0.21,0.73-0.31,1.1
			c-39.2,11.85-61.95,21.55-62.36,21.73c-12.83,5.53-26.69,5.37-38.75,0.64c-12.16-4.77-22.49-14.19-28.09-27.11
			c-11.14-25.75,0.63-55.64,26.36-66.83c3.51-1.52,87.5-37.63,215.68-58.68c118.32-19.44,298.92-29.22,487.36,34.5
			C1371.55,1072.89,1385.82,1101.75,1376.83,1128.35z"/>
		<path class="st9" d="M745.41,1159.44c-0.23,0.07-0.45,0.13-0.67,0.2c0.1-0.37,0.2-0.74,0.31-1.1
			C745.17,1158.84,745.29,1159.14,745.41,1159.44z"/>
	</g>
	<path class="st4" d="M591.29,569.33c-11.25,3.56-21.73,7.42-31.7,11.94c-9.96,4.52-19.26,9.8-27.77,16.03
		c-2.09,1.6-4.23,3.16-6.19,4.91c-2.09,1.61-3.94,3.5-5.91,5.25c-3.82,3.66-7.35,7.62-10.82,11.75
		c-6.78,8.4-12.65,17.82-18.69,28.03c-0.13-11.86,3.02-23.75,8.6-34.6c2.87-5.38,6.36-10.48,10.36-15.17
		c2.07-2.28,4.17-4.55,6.46-6.61c2.25-2.12,4.69-4,7.12-5.9c9.95-7.28,21.33-12.36,33.05-15.09
		C567.5,567.25,579.68,566.54,591.29,569.33z"/>
	<circle class="st4" cx="620.21" cy="568.1" r="11.91"/>
	<path class="st3" d="M1444.22,1264.91c12.11,65.7,24.61,133.64-37.65,182.25c-61.81,48.23-155.18,30.19-263.27,9.29
		c-49.9-9.65-101.5-19.62-156.17-24.7c-12.5-1.18-25.15-1.7-37.88-1.7c-54.6,0-110.92,9.58-165.73,18.89
		c-98.94,16.84-192.4,32.73-249.87-15.41c-69.54-58.22-49.31-109.14-27.62-162.99c16.84,31.21,50.65,74.22,114.45,94.2
		c106.36,33.31,134.56-42.29,272.95-41c138.41,1.27,198.32,69.18,316.99,58.94c118.68-10.26,171.38-127.08,189.23-200.65
		c9.38-38.65,37.06-59.28,61.22-70.17c-4.25,4.84-8.16,10.17-11.66,16.07C1426.14,1166.73,1434.93,1214.42,1444.22,1264.91z"/>
	<path class="st4" d="M1451.84,648.42c-4.54-10.9-9.31-20.99-14.69-30.53c-5.38-9.52-11.45-18.32-18.42-26.25
		c-1.77-1.95-3.52-3.93-5.44-5.73c-1.79-1.94-3.83-3.61-5.76-5.43c-3.98-3.48-8.23-6.65-12.66-9.75
		c-8.97-6.01-18.86-11.03-29.57-16.15c11.81-1.18,23.92,0.91,35.22,5.51c5.61,2.39,11,5.41,16.02,8.99c2.45,1.86,4.9,3.75,7.16,5.85
		c2.3,2.05,4.4,4.32,6.5,6.57c8.13,9.27,14.19,20.16,17.94,31.59C1451.81,624.54,1453.59,636.61,1451.84,648.42z"/>
	<path class="st4" d="M1547.82,1020.62c4.53-5.42,8.68-10.85,12.59-16.4c3.92-5.52,7.56-11.14,10.9-16.87
		c6.73-11.42,12.2-23.32,16.26-35.65c4.11-12.32,6.71-25.11,8.07-38.27c1.32-13.19,1.32-26.68,1.07-40.81
		c6.45,12.58,9.96,26.63,10.98,41c0.88,14.36-0.94,29.1-5.58,42.9c-4.57,13.83-11.78,26.73-21,37.77
		c-4.62,5.51-9.69,10.6-15.25,15.08c-2.77,2.25-5.65,4.34-8.66,6.24C1554.19,1017.49,1551.11,1019.27,1547.82,1020.62z"/>
	<circle class="st4" cx="1522.47" cy="1028.9" r="11.91"/>
</g>
</svg>
