<?xml version="1.0" standalone="no"?>
<!DOCTYPE svg PUBLIC "-//W3C//DTD SVG 20010904//EN"
 "http://www.w3.org/TR/2001/REC-SVG-20010904/DTD/svg10.dtd">
<svg version="1.0" xmlns="http://www.w3.org/2000/svg"
 width="414.000000pt" height="414.000000pt" viewBox="0 0 414.000000 414.000000"
 preserveAspectRatio="xMidYMid meet">
<metadata>
Created by potrace 1.11, written by Peter Selinger 2001-2013
</metadata>
<g transform="translate(0.000000,414.000000) scale(0.100000,-0.100000)"
fill="#000000" stroke="none">
<path d="M2037 4134 c-1 -1 -36 -4 -77 -7 -86 -7 -193 -33 -295 -71 -327 -124
-596 -436 -674 -781 -6 -27 -14 -61 -18 -75 -3 -14 -7 -440 -8 -948 -2 -508
-6 -926 -9 -929 -3 -3 -40 -8 -82 -10 -80 -3 -203 -39 -263 -76 l-34 -21 -16
25 c-65 100 -139 142 -252 143 -65 1 -83 -3 -134 -29 -162 -83 -207 -285 -96
-431 41 -54 122 -102 188 -111 l40 -5 0 -87 c-1 -96 5 -137 29 -208 82 -243
316 -411 574 -411 69 0 168 17 221 39 23 9 33 6 75 -24 85 -60 149 -87 249
-103 22 -3 519 -6 1105 -6 1164 -1 1117 -3 1248 57 153 70 281 234 317 406 10
45 12 479 12 1858 0 1649 -1 1800 -16 1803 -40 10 -280 -1 -363 -17 -65 -13
-206 -63 -281 -101 -88 -44 -208 -127 -259 -179 l-28 -28 -1 39 c0 22 -1 95
-2 164 l-2 125 -135 -1 c-209 -3 -357 -36 -522 -119 -84 -42 -203 -124 -260
-179 -15 -14 -29 -26 -30 -26 -2 0 -3 66 -3 148 1 81 -1 154 -3 162 -2 12 -22
15 -98 15 -53 0 -96 0 -97 -1z m34 -181 c0 -10 0 -207 0 -438 l1 -420 19 90
c24 117 43 174 86 260 122 245 348 427 611 494 100 26 221 38 231 23 3 -6 6
-195 6 -421 0 -226 2 -411 5 -411 3 0 7 15 8 33 5 61 43 182 87 272 129 267
372 455 664 515 114 23 177 26 183 8 2 -7 3 -785 3 -1728 -2 -1710 -2 -1715
-23 -1772 -41 -114 -119 -199 -231 -252 l-66 -31 -1105 0 -1105 0 -75 37 c-52
25 -93 55 -128 92 l-53 56 -37 -23 c-89 -55 -170 -76 -270 -71 -189 11 -358
154 -402 342 -12 50 -10 151 4 240 13 77 -44 126 -145 128 -78 2 -121 22 -144
70 -19 41 -19 68 1 109 29 62 101 86 165 56 26 -12 41 -31 65 -80 37 -77 69
-103 127 -103 34 -1 53 7 96 37 86 62 163 85 273 81 57 -1 110 -9 138 -19 25
-10 49 -19 55 -20 6 -1 10 375 11 1013 1 1081 1 1060 50 1206 108 322 410 581
737 629 23 4 43 8 44 9 2 1 28 4 58 5 47 2 55 -1 56 -16z"/>
<path d="M1879 3826 c-2 -3 -26 -7 -52 -10 -61 -8 -189 -57 -246 -95 -161
-107 -286 -286 -316 -451 -3 -14 -7 -36 -10 -50 -7 -30 -8 -197 -2 -225 3 -11
8 -51 12 -89 11 -98 21 -74 40 102 17 145 35 220 77 317 85 195 248 362 451
461 31 16 57 32 57 36 0 9 -4 10 -11 4z"/>
<path d="M2760 3814 c-270 -56 -490 -282 -544 -557 -14 -68 -14 -201 -1 -292
6 -47 21 -81 22 -53 2 21 12 97 24 173 36 224 143 416 314 563 60 52 213 149
249 158 14 3 26 9 26 13 0 10 -28 8 -90 -5z"/>
<path d="M3756 3823 c-1 -1 -20 -5 -42 -9 -55 -8 -181 -59 -230 -91 -204 -138
-321 -344 -329 -581 -1 -51 1 -111 7 -135 5 -23 10 -55 10 -70 2 -50 16 -38
23 21 4 31 9 75 12 97 17 139 80 304 159 418 89 128 244 257 387 322 31 15 57
27 57 28 0 3 -51 2 -54 0z"/>
<path d="M1813 2515 c-50 -21 -57 -44 -58 -210 -2 -164 4 -196 40 -219 28 -18
186 -23 229 -6 43 16 50 43 51 210 2 158 -4 190 -39 219 -22 19 -184 22 -223
6z"/>
<path d="M3094 2522 c-12 -2 -32 -14 -45 -28 -22 -24 -23 -32 -24 -187 -2
-228 4 -237 154 -237 158 0 164 9 164 228 0 166 -6 192 -46 213 -20 12 -154
19 -203 11z"/>
<path d="M1637 1749 c-76 -12 -144 -67 -178 -144 -18 -41 -19 -68 -19 -491 l1
-446 24 -48 c45 -89 132 -138 240 -136 l50 2 2 49 c0 28 2 73 2 101 1 59 28
106 80 141 39 26 87 29 137 8 73 -30 93 -73 96 -202 l3 -98 465 -1 c256 0 471
2 477 4 9 3 12 32 12 99 -1 117 16 157 81 191 24 12 57 22 72 22 47 0 102 -28
128 -67 22 -32 26 -51 30 -142 l5 -106 50 -1 c105 -2 193 46 238 129 22 41 22
49 25 496 l3 454 -26 53 c-44 89 -118 134 -226 137 l-64 2 -5 -105 c-6 -121
-21 -155 -80 -189 -71 -40 -160 -19 -206 48 -22 32 -24 46 -24 137 0 73 -4
103 -12 106 -7 2 -222 4 -478 4 l-465 -1 -5 -110 c-4 -93 -8 -115 -27 -141
-64 -90 -203 -84 -259 11 -21 36 -25 56 -25 126 0 46 -3 91 -5 100 -4 16 -48
20 -117 8z"/>
</g>
</svg>
