<?xml version="1.0" encoding="iso-8859-1"?>
<!-- Generator: Adobe Illustrator 19.0.0, SVG Export Plug-In . SVG Version: 6.00 Build 0)  -->
<svg version="1.1" id="Capa_1" xmlns="http://www.w3.org/2000/svg" xmlns:xlink="http://www.w3.org/1999/xlink" x="0px" y="0px"
	 viewBox="0 0 512 512" style="enable-background:new 0 0 512 512;" xml:space="preserve">
<path style="fill:#EA3D94;" d="M502.64,255.998c0,3.38-1.29,6.76-3.85,9.32l-233.47,233.47c-2.56,2.56-5.94,3.85-9.32,3.85
	s-6.76-1.29-9.32-3.85L13.21,265.318c-2.56-2.56-3.85-5.94-3.85-9.32c0-3.37,1.29-6.75,3.85-9.32l122.36-122.36l111.11-111.11
	c2.56-2.56,5.94-3.85,9.32-3.85c3.38,0,6.76,1.29,9.32,3.85l111.11,111.11l122.36,122.36
	C501.35,249.248,502.64,252.628,502.64,255.998z"/>
<rect x="126.816" y="126.81" transform="matrix(0.7071 -0.7071 0.7071 0.7071 -106.0368 256.003)" style="fill:#C9127F;" width="258.378" height="258.378"/>
<path style="fill:#A5006A;" d="M502.64,255.998h-85.46L256,94.818V9.358c3.38,0,6.76,1.29,9.32,3.85l111.11,111.11l122.36,122.36
	C501.35,249.248,502.64,252.628,502.64,255.998z"/>
<polygon style="fill:#82005A;" points="438.696,255.998 417.178,255.998 256,94.82 256,73.302 "/>
<path style="fill:#C9127F;" d="M502.642,255.998c0,3.378-1.288,6.757-3.855,9.323L265.324,498.784
	c-2.567,2.567-5.945,3.855-9.323,3.855v-85.463l161.178-161.178L502.642,255.998L502.642,255.998z"/>
<polygon style="fill:#A5006A;" points="438.696,255.998 256,438.694 256,417.176 417.178,255.998 "/>
<path style="fill:#F766B5;" d="M256,9.358v85.46l-74.96,74.97l-11.25,11.25l-74.97,74.96H9.36c0-3.37,1.29-6.75,3.85-9.32
	l122.36-122.36l111.11-111.11C249.24,10.648,252.62,9.358,256,9.358z"/>
<polygon style="fill:#EA3D94;" points="256,73.302 256,94.82 94.822,255.998 73.304,255.998 "/>
<rect x="248.036" y="77.735" transform="matrix(-0.7071 0.7071 -0.7071 -0.7071 618.026 256.0109)" style="fill:#A5006A;" width="15.91" height="356.537"/>
<rect x="166.26" y="111.596" transform="matrix(-0.7071 0.7071 -0.7071 -0.7071 420.5931 174.2161)" style="fill:#EA3D94;" width="15.91" height="125.239"/>
<polygon style="fill:#82005A;" points="387.68,135.568 342.22,181.038 267.25,255.998 135.57,387.678 124.32,376.428 256,244.748 
	330.97,169.788 376.43,124.318 "/>
<rect x="116.762" y="342.289" transform="matrix(-0.7071 0.7071 -0.7071 -0.7071 523.7698 483.5356)" style="fill:#C9127F;" width="89.959" height="15.91"/>
<g>
	
		<rect x="142.026" y="142.03" transform="matrix(-0.7071 0.7071 -0.7071 -0.7071 618.0295 256.0023)" style="fill:#FC9AD4;" width="227.938" height="227.938"/>
	<path style="fill:#FC9AD4;" d="M473.467,46.032c-1.919,0-3.839-0.732-5.304-2.196c-2.929-2.93-2.929-7.678,0-10.607l31.033-31.033
		c2.93-2.928,7.678-2.928,10.607,0c2.929,2.93,2.929,7.678,0,10.607L478.77,43.836C477.306,45.3,475.386,46.032,473.467,46.032z"/>
	<path style="fill:#FC9AD4;" d="M7.5,511.999c-1.919,0-3.839-0.732-5.303-2.196c-2.929-2.93-2.929-7.678,0-10.607l31.033-31.033
		c2.929-2.928,7.678-2.928,10.606,0c2.929,2.93,2.929,7.678,0,10.607l-31.033,31.033C11.339,511.267,9.42,511.999,7.5,511.999z"/>
	<path style="fill:#FC9AD4;" d="M504.5,511.999c-1.919,0-3.839-0.732-5.304-2.196l-31.033-31.033c-2.929-2.93-2.929-7.678,0-10.607
		c2.93-2.928,7.678-2.928,10.607,0l31.033,31.033c2.929,2.93,2.929,7.678,0,10.607C508.339,511.267,506.419,511.999,504.5,511.999z"
		/>
	<path style="fill:#FC9AD4;" d="M38.533,46.032c-1.919,0-3.839-0.732-5.303-2.196L2.197,12.803c-2.929-2.93-2.929-7.678,0-10.607
		c2.929-2.928,7.678-2.928,10.606,0l31.033,31.033c2.929,2.93,2.929,7.678,0,10.607C42.372,45.3,40.453,46.032,38.533,46.032z"/>
</g>
<g>
</g>
<g>
</g>
<g>
</g>
<g>
</g>
<g>
</g>
<g>
</g>
<g>
</g>
<g>
</g>
<g>
</g>
<g>
</g>
<g>
</g>
<g>
</g>
<g>
</g>
<g>
</g>
<g>
</g>
</svg>
