<svg enable-background="new 0 0 488.531 488.531" height="512" viewBox="0 0 488.531 488.531" width="512" xmlns="http://www.w3.org/2000/svg"><path d="m488.531 244.568c0 38.808-9.05 75.502-25.155 108.087-39.879 80.687-271.389 199.7-389.315 55.033-114.615-140.604-35.507-314.314 24.057-358.859 40.754-30.478 91.343-48.527 146.148-48.527 134.903 0 244.265 109.362 244.265 244.266z" fill="#9bd069"/><path d="m164.878 333.265c-74.975-68.104-106.452-185.682-66.098-284.919-59.937 44.512-98.78 115.828-98.78 196.222 0 61.07 23.29 116.906 60.447 159.731 2.477 2.855 367.624 1.138 367.624 1.138 14.267-16.289 26.403-34.491 35.975-54.17-10.59 18.748-185.853 84.93-299.168-18.002z" fill="#5ea570"/><path d="m334.001 21.882c-13.018-5.145-26.583-9.204-40.585-12.065l-125.688 25.597-107.26 81.889v287.018c2.471 2.847 5.002 5.636 7.593 8.366 39.285 41.394 92.141 69.036 151.975 74.955 7.958.787 40.637.781 48.677-.018 63.38-6.299 119.622-36.833 159.35-82.196v-288.124l-67.246-45.952z" fill="#e490b7"/><path d="m286.617 94.007h-85.921l-49.794 60.756v218.88l49.794 60.756h85.921l51.012-60.756v-218.88z" fill="#ffddf1"/><path d="m324.076 3.573-37.459 90.434 51.012 60.756 90.434-37.459z" fill="#ffddf1"/><path d="m181.542 480.64c12.445 3.333 25.299 5.697 38.493 7.003 7.958.787 40.637.781 48.677-.018 12.713-1.263 25.135-3.509 37.198-6.646l-19.294-46.58h-85.921z" fill="#df73c1"/><path d="m60.468 117.304 90.434 37.459 49.794-60.756-37.459-90.434z" fill="#df73c1"/><path d="m163.237 3.573 37.459 90.434h85.921l37.459-90.434z" fill="#ffbee4"/><path d="m337.629 373.643 85.913 36.812c1.531-1.654 3.036-3.331 4.521-5.026v-288.125l-90.434 37.459z" fill="#ffbee4"/><g fill="#fff"><path d="m337.629 279.477-186.727 41.328v52.838l10.083 12.303 176.644-39.096z"/><path d="m150.902 268.058 186.727-44.327v-30.635l-186.727 41.328z"/></g><g fill="#fff"><path d="m81.093 112.489c4.913 23.382 23.181 41.65 46.563 46.563-23.382 4.913-41.65 23.181-46.563 46.563-4.913-23.382-23.181-41.65-46.563-46.563 23.381-4.913 41.649-23.181 46.563-46.563z"/><path d="m162.628 72.666c3.163 15.051 14.922 26.811 29.974 29.974-15.051 3.163-26.811 14.922-29.974 29.974-3.163-15.051-14.922-26.811-29.974-29.974 15.052-3.163 26.812-14.922 29.974-29.974z"/><path d="m362.361 376.179c2.449 11.656 11.556 20.763 23.212 23.212-11.656 2.449-20.763 11.556-23.212 23.212-2.449-11.656-11.556-20.763-23.212-23.212 11.656-2.449 20.763-11.556 23.212-23.212z"/></g><path d="m65.705 410.149c.783.848 1.562 1.702 2.356 2.539 30.622 32.266 69.491 56.173 113.482 67.952l19.154-46.241-49.794-60.755z" fill="#da4093"/></svg>