<svg id="Capa_1" enable-background="new 0 0 512 512" height="512" viewBox="0 0 512 512" width="512" xmlns="http://www.w3.org/2000/svg"><g><g><path d="m346 166 63.637 22.5 86.133-22.5c-25.875-69.08-80.697-123.896-149.77-149.769l-22.495 95.769z" fill="#4895ff"/><path d="m495.773 345.989c10.482-27.987 16.227-58.304 16.227-89.989 0-31.688-5.745-62.004-16.226-89.989l-74.774 38.989-45 51 26 60z" fill="#4895ff"/><path d="m166 346-63.885-18-85.885 18c25.875 69.08 80.697 123.896 149.77 149.769l22-81.384z" fill="#6cf"/><path d="m345.99 495.77c-27.99 10.49-58.29 16.23-89.98 16.23h-.01c-31.68 0-62-5.74-89.99-16.23l33.99-81.38 56-38.39.01.01 54.99 38.38z" fill="#6cf"/><path d="m345.99 495.77c-27.99 10.49-58.29 16.23-89.98 16.23v-135.99l54.99 38.38z" fill="#4895ff"/><path d="m346.002 346.002-.002-.002-16 61 16 88.771c69.08-25.876 123.895-80.698 149.769-149.771l-94.769-13-55 13z" fill="#4895ff"/><path d="m136 256-41-67.5-78.773-22.489c-10.482 27.987-16.227 58.304-16.227 89.989 0 31.688 5.745 62.004 16.226 89.989l66.774-26.989z" fill="#6cf"/><path d="m345.99 16.23-26.99 65.77-62.99 53.99-.01.01-62-55-27.99-64.77c27.99-10.49 58.3-16.23 89.99-16.23h.01c31.68 0 61.99 5.74 89.98 16.23z" fill="#6cf"/><path d="m345.99 16.23-26.99 65.77-62.99 53.99v-135.99c31.68 0 61.99 5.74 89.98 16.23z" fill="#4895ff"/><path d="m166 166 22-71.5-22-78.271c-69.08 25.876-123.895 80.698-149.769 149.771l108.769 22.5z" fill="#6cf"/></g><g fill="none"><path d="m166 16.211v.018l.01-.003z"/><path d="m495.788 166h-.018l.004.011z"/><path d="m16.212 346h.018l-.004-.011z"/><path d="m346 16.213-.011.014.011.004z"/><path d="m16.213 166 .014.011.004-.011z"/><path d="m495.773 345.989-.004.011h.018z"/><path d="m346 495.789v-.018l-.01.003z"/><path d="m166 495.787.011-.014-.011-.004z"/></g><path d=""/><path d=""/><g fill="#80eaff"><path d="m256 256-61 32.5-29 57.5v149.769l.011.004 89.989-119.773 15-55z"/><path d="m256 256 67.505-32.5 22.495-57.5v-149.769l-.011-.004-89.989 119.773-16 47z"/><path d="m376 256-52.495-12-67.505 12 37 59.5 53 30.5h149.769l.004-.011z"/><path d="m256 256-34-74.5-56-15.5h-149.769l-.004.011 119.773 89.989 48.5 14z"/></g><path d="m346 166-90 90h120l119.774-89.989-.004-.011z" fill="#6cf"/><path d="m256 256v120l89.99 119.774.01-.003v-149.771z" fill="#6cf"/><path d="m256 256h-120l-119.774 89.989.004.011h149.77z" fill="#f0f7ff"/><path d="m256 256v-120l-89.99-119.774-.01.003v149.771z" fill="#f0f7ff"/></g></svg>