<svg id="Layer_1" enable-background="new 0 0 509.663 509.663" height="512" viewBox="0 0 509.663 509.663" width="512" xmlns="http://www.w3.org/2000/svg"><g><g><path d="m499.405 265.09c0 38.228-8.771 74.408-24.41 106.637-39.619 81.647-123.318 117.795-220.163 117.795-135.074 0-220.595-89.358-220.595-224.432 0-84.421 18.795-158.852 83.852-202.804 39.034-26.371 86.09-41.769 136.743-41.769 135.074 0 244.573 109.5 244.573 244.573z" fill="#7340c3"/><path d="m338.459 413.365c-135.074 0-244.573-109.499-244.573-244.573 0-38.233 8.779-74.412 24.423-106.642-65.178 43.932-108.05 118.426-108.05 202.94 0 27.942 4.686 54.789 13.314 79.799l27.082 54.889c43.764 66.21 118.87 109.885 204.177 109.885 96.845 0 180.541-56.291 220.16-137.938-38.994 26.288-85.968 41.64-136.533 41.64z" fill="#51329b"/></g><g><path d="m202.321 280.904 18.307-280.904 228.399 399.769z" fill="#f3d14c"/><path d="m23.585 344.885c3.663 10.617 8.031 20.904 13.058 30.801l82.744-44.865 101.241-189.596c0-16.681 0-124.812 0-141.225-3.014 5.274-191.898 335.88-197.043 344.885z" fill="#e9a329"/><path d="m114.83 326.403 105.798-185.178 105.798 185.178z" fill="#f8e57e"/><path d="m114.83 326.403-79.142 47.359c4.47 8.998 9.477 17.68 14.981 26.007h398.358l-122.601-73.366z" fill="#e08623"/><g fill="#fcf5ac"><path d="m289.152 261.162-174.287 65.179-.035.062h156.338l45.53-17.027z"/><path d="m155.518 255.187 107.295-40.126-14.861-26.011-69.497 25.99z"/></g></g><g fill="#fff"><path d="m135.47 89.94c5.117 24.352 24.143 43.378 48.495 48.495-24.352 5.117-43.378 24.143-48.495 48.495-5.117-24.352-24.143-43.378-48.495-48.495 24.352-5.117 43.378-24.143 48.495-48.495z"/><path d="m213.883 44.866c3.294 15.676 15.541 27.923 31.217 31.217-15.676 3.294-27.923 15.541-31.217 31.217-3.294-15.676-15.541-27.923-31.217-31.217 15.676-3.294 27.923-15.541 31.217-31.217z"/><path d="m347.359 375.593c2.551 12.14 12.036 21.625 24.175 24.176-12.14 2.551-21.625 12.036-24.175 24.176-2.551-12.14-12.036-21.625-24.175-24.176 12.14-2.551 21.624-12.036 24.175-24.176z"/></g></g></svg>