<svg id="Layer_1" enable-background="new 0 0 510 510" height="512" viewBox="0 0 510 510" width="512" xmlns="http://www.w3.org/2000/svg"><g><g><path d="m510 255c0 39.858-9.145 77.58-25.451 111.183-41.308 85.128-128.575 122.817-229.549 122.817-140.833 0-230-93.167-230-234 0-88.02 19.597-165.625 87.427-211.45 40.698-27.495 89.761-43.55 142.573-43.55 140.833 0 255 114.167 255 255z" fill="#f3d14c"/><path d="m342.192 409.597c-140.832 0-255-114.167-255-255 0-39.863 9.154-77.584 25.464-111.189-67.956 45.805-112.656 123.475-112.656 211.592 0 2.827.046 5.643.137 8.448l228.79 245.236c8.573.87 17.271 1.316 26.073 1.316 100.974 0 188.238-58.691 229.547-143.818-40.657 27.408-89.634 43.415-142.355 43.415z" fill="#e9a329"/></g><g><path d="m373.41 451.74 68.982-159.38-47.942-80.738-15.979-80.738-80.077-23.502-79.303-45.48-41.062 25.123-120.415 38.797-46.571 107.6-10.995 25.404c1.248 84.77 43.849 159.516 108.542 204.965l35.28 10.773 43.761 26.424c13.524 3.695 27.491 6.317 41.812 7.742z" fill="#51329b"/><path d="m343.223 165.036-63.962-15.864-60.945-38.197-126.549 50.095-54.061 124.906 37.161 70.466 12.934 56.084 70.105 19.665 54.801 34.396 63.275-31.733 63.275-18.362 54.061-124.907z" fill="#7b37d5"/><path d="m218.013 128.743 42.435 58.626 72.379-12.382-13.832 73.859 53.038 42.435-55.109 42.436 22.333 82.775-83.81-24.228-40.148 61.188-44.723-63.259-70.474 11.487 11.927-72.964-63.323-42.74 65.394-42.131-22.333-82.775 83.81 24.227z" fill="#8f61f8"/><path d="m69.649 430.114c37.173 39.333 86.728 66.828 142.431 76.271l.628-39.798-124.907-54.061z" fill="#3e287f"/><path d="m219.09 61.901-.774 49.074 124.907 54.061 35.248-34.153z" fill="#7b37d5"/><path d="m442.392 292.359-49.074-.774-50.095-126.549 35.248-34.153z" fill="#613aaf"/><path d="m219.09 61.901-.774 49.074-126.549 50.095-34.153-35.248z" fill="#613aaf"/><path d="m218.316 110.975 124.907 54.061-82.775 22.333z" fill="#8f61f8"/><path d="m218.316 110.975-42.739 74.322 39.722 107.062 45.149-104.99z" fill="#9d77fa"/><path d="m343.223 165.036-24.228 83.81-103.696 43.513 45.149-104.99z" fill="#b39afb"/><path d="m393.318 291.585-76.394 42.132-101.625-41.358 103.696-43.513z" fill="#9d77fa"/><path d="m37.706 285.976 76.394-42.131 101.199 48.514-103.27 36.357z" fill="#7b37d5"/><path d="m170.576 390.193 44.723-97.834-103.27 36.357-24.228 83.81z" fill="#613aaf"/><path d="m215.299 292.359 40.148 99.905-42.74 74.323-42.131-76.394z" fill="#6932c0"/><path d="m37.706 285.976 74.323 42.74-24.228 83.81z" fill="#6932c0"/><path d="m212.707 466.587-42.131-76.394-82.775 22.333z" fill="#51329b"/><path d="m255.447 392.264 83.81 24.228-126.55 50.095z" fill="#613aaf"/></g><g fill="#fff"><path d="m79.453 133.23c4.527 21.543 21.359 38.375 42.902 42.902-21.543 4.527-38.375 21.359-42.902 42.902-4.527-21.543-21.359-38.375-42.902-42.902 21.543-4.527 38.375-21.359 42.902-42.902z"/><path d="m182.344 92.365c2.914 13.868 13.749 24.703 27.617 27.617-13.868 2.914-24.703 13.749-27.617 27.617-2.914-13.868-13.749-24.703-27.617-27.617 13.868-2.914 24.702-13.749 27.617-27.617z"/><path d="m334.438 407.41c2.257 10.74 10.648 19.131 21.387 21.387-10.74 2.257-19.13 10.648-21.387 21.387-2.257-10.74-10.648-19.13-21.387-21.387 10.74-2.257 19.131-10.647 21.387-21.387z"/></g></g></svg>