<svg id="Capa_1" enable-background="new 0 0 512 512" height="512" viewBox="0 0 512 512" width="512" xmlns="http://www.w3.org/2000/svg"><g><g id="Diamond_6_" fill="#eabfff"><path d="m298.001 183.401 9.486 65.459-51.487 7.14-54.474-12.304 12.473-60.295-8.999-90.9 51-92.501 51 92.501z"/><path d="m298.001 328.599 11.204 81.625-53.205 101.776-52.643-99.335 10.642-84.066-8.992-36.313 50.993-36.286 50.829 36.004z"/></g><g fill="#cb99ff"><path d="m309.205 410.224-11.204-81.625 8.829-36.595-50.83-36.004v256z"/><path d="m307.487 248.859-9.486-65.458 8.999-90.901-51-92.5v256z"/><path d="m256 512c-44.7 0-88.801-12.7-127.5-35.2l4.128-89.156 81.371-59.044z"/></g><path d="m476.8 383.5-93.299 1.353-85.5-56.254-42.001-72.599 53.205-30 30.494 30 57.741 23.698z" fill="#a080ff"/><path d="m256 256-42.001 72.599-80.457 54.705-98.342.196 48.933-103.406 88.168-24.094 37.808-30z" fill="#b58dff"/><path d="m256 256h-83.699l-63.38-28.942-73.721-98.558 93.301-1.352 85.498 56.253z" fill="#cb99ff"/><path d="m476.8 128.5-72.816 97.717-64.285 29.783h-83.699l42.001-72.599 76.894-53.611z" fill="#b58dff"/><path d="m213.999 183.401-178.799-54.901c22.2-38.699 54.6-71.1 93.3-93.3l63.058 57.301z" fill="#b58dff"/><path d="m172.301 256-137.101 127.5c-22.5-38.401-35.2-82.5-35.2-127.5l77.114-30z" fill="#a080ff"/><path d="m476.8 383.5c-22.2 38.699-54.6 71.1-93.3 93.3l-62.884-57-22.615-91.2z" fill="#8a73ff"/><g fill="#a080ff"><path d="m512 256-55.95 30-116.35-30 137.1-127.5c22.5 38.699 35.2 82.8 35.2 127.5z"/><path d="m476.8 128.5-178.799 54.901 22.442-120.9 63.057-27.301c38.699 22.2 71.1 54.601 93.3 93.3z"/></g><path d="m383.5 35.2-85.499 148.2-42.001-183.4c44.399 0 88.801 12.7 127.5 35.2z" fill="#b58dff"/><path d="m512 256c0 45-12.7 89.099-35.2 127.5l-137.101-127.5z" fill="#8a73ff"/><path d="m383.5 476.8c-38.699 22.5-82.8 35.2-127.5 35.2l42.001-183.401z" fill="#b58dff"/><path d="m213.999 328.599-85.499 148.201c-38.699-22.2-71.1-54.6-93.3-93.3z" fill="#a080ff"/><path d="m172.301 256h-172.301c0-44.7 12.7-88.801 35.2-127.5z" fill="#b58dff"/><path d="m256 0-42.001 183.401-85.499-148.201c38.699-22.5 83.101-35.2 127.5-35.2z" fill="#cb99ff"/></g></svg>