<?xml version="1.0" encoding="iso-8859-1"?>
<!-- Generator: Adobe Illustrator 19.0.0, SVG Export Plug-In . SVG Version: 6.00 Build 0)  -->
<svg version="1.1" id="Capa_1" xmlns="http://www.w3.org/2000/svg" xmlns:xlink="http://www.w3.org/1999/xlink" x="0px" y="0px"
	 viewBox="0 0 512.002 512.002" style="enable-background:new 0 0 512.002 512.002;" xml:space="preserve">
<g>
	<path style="fill:#3D324C;" d="M404.834,251.41l-2.03-3.531L263.681,4.503c-1.567-2.766-4.501-4.475-7.68-4.475
		c-3.179,0-6.113,1.709-7.68,4.475L109.198,247.879l-2.03,3.531c-1.647,2.839-1.647,6.342,0,9.181l4.502,7.857l136.651,239.051
		c1.567,2.766,4.501,4.475,7.68,4.475c3.179,0,6.113-1.709,7.68-4.475l136.651-239.051l4.502-7.857
		C406.481,257.752,406.481,254.249,404.834,251.41z"/>
	<path style="fill:#955BA5;" d="M256.001,0v326.621l-8.828-4.149l-141.241-66.472c-0.03-1.616,0.398-3.208,1.236-4.59l2.03-3.531
		L248.321,4.503C249.863,1.709,252.81-0.019,256.001,0z"/>
	<g>
		<path style="fill:#894B9D;" d="M406.07,256.001l-141.241,66.472l-8.828,4.149V0c3.191-0.019,6.138,1.708,7.68,4.502
			l139.123,243.377l2.03,3.531C405.671,252.793,406.1,254.384,406.07,256.001z"/>
		<path style="fill:#894B9D;" d="M256.001,326.621v185.379c-3.191,0.019-6.138-1.708-7.68-4.502L111.67,268.447l-4.502-7.857
			c-0.837-1.383-1.266-2.974-1.237-4.59l141.243,66.472L256.001,326.621z"/>
	</g>
	<path style="fill:#4C8056;" d="M123.075,405.293l-0.83-1.448L64.954,304.19c-0.643-1.141-1.851-1.846-3.16-1.846
		c-1.309,0-2.517,0.706-3.16,1.846L1.343,403.845l-0.83,1.448c-0.683,1.161-0.683,2.6,0,3.761l1.854,3.213l56.267,97.889
		c0.643,1.141,1.851,1.846,3.16,1.846c1.309,0,2.517-0.705,3.16-1.846l56.267-97.907l1.854-3.213c0.683-1.16,0.683-2.6,0-3.761
		V405.293z"/>
	<path style="fill:#71C285;" d="M61.794,302.345v133.738l-3.637-1.704L0.001,407.173c-0.014-0.663,0.163-1.316,0.512-1.88
		l0.83-1.448l57.291-99.655C59.272,303.045,60.483,302.338,61.794,302.345z"/>
	<g>
		<path style="fill:#4FBA6F;" d="M123.587,407.173l-58.156,27.215l-3.637,1.695V302.345c1.311-0.008,2.522,0.699,3.16,1.845
			l57.291,99.655l0.83,1.448C123.424,405.857,123.602,406.51,123.587,407.173z"/>
		<path style="fill:#4FBA6F;" d="M61.794,436.083v75.917c-1.311,0.008-2.522-0.699-3.16-1.845L2.367,412.249l-1.854-3.213
			C0.168,408.476-0.01,407.83,0,407.173l58.157,27.215L61.794,436.083z"/>
	</g>
	<path style="fill:#802D40;" d="M511.489,105.155l-0.83-1.448L453.368,4.052c-0.643-1.141-1.851-1.846-3.16-1.846
		s-2.517,0.705-3.16,1.846l-57.291,99.655l-0.83,1.448c-0.683,1.161-0.683,2.6,0,3.761l1.854,3.213l56.267,97.889
		c0.643,1.141,1.851,1.846,3.16,1.846s2.517-0.705,3.16-1.846l56.267-97.907l1.854-3.213c0.683-1.161,0.683-2.6,0-3.761V105.155z"/>
	<path style="fill:#FB7B76;" d="M450.208,2.207v133.738l-3.637-1.704l-58.156-27.207c-0.014-0.663,0.163-1.316,0.512-1.88
		l0.83-1.448l57.291-99.655C447.685,2.907,448.897,2.2,450.208,2.207z"/>
	<path style="fill:#DF4D60;" d="M512.001,107.035l-58.156,27.215l-3.637,1.695V2.207c1.311-0.008,2.522,0.699,3.16,1.845
		l57.291,99.655l0.83,1.448C511.838,105.719,512.015,106.372,512.001,107.035z"/>
	<path style="fill:#E64C3C;" d="M450.208,135.945v75.917c-1.311,0.008-2.522-0.699-3.16-1.845l-56.267-97.907l-1.854-3.213
		c-0.345-0.559-0.523-1.206-0.512-1.863l58.157,27.215L450.208,135.945z"/>
</g>
<g>
</g>
<g>
</g>
<g>
</g>
<g>
</g>
<g>
</g>
<g>
</g>
<g>
</g>
<g>
</g>
<g>
</g>
<g>
</g>
<g>
</g>
<g>
</g>
<g>
</g>
<g>
</g>
<g>
</g>
</svg>
