<svg id="Capa_1" enable-background="new 0 0 512 512" height="512" viewBox="0 0 512 512" width="512" xmlns="http://www.w3.org/2000/svg"><g><g><path d="m512 256c0 141.387-114.613 256-256 256s-256-114.613-256-256 114.613-256 256-256 256 114.613 256 256zm0 0" fill="#d85e91"/><path d="m512 256c0 26.051-3.891 51.191-11.129 74.871-5.031 16.469-11.672 32.231-19.75 47.109-8.25 15.2-147.391 48.147-225.121 48.147s-216.871-32.947-225.109-48.147c-3.289-6.031-6.332-12.21-9.121-18.531-14-31.629-21.77-66.629-21.77-103.449 0-46.219 12.25-89.57 33.68-127 44.121 77.07 127.16 129 222.32 129s178.211-51.93 222.32-129c21.43 37.43 33.68 80.781 33.68 127zm0 0" fill="#c43071"/><path d="m481.262 377.699c-7.16 13.223-15.434 25.742-24.723 37.43-8.437 10.633-17.719 20.57-27.719 29.723-45.539 41.699-106.211 67.148-172.82 67.148s-127.281-25.449-172.82-67.148c-10-9.153-19.282-19.09-27.719-29.723-9.289-11.688-17.563-24.207-24.723-37.43zm0 0" fill="#815"/></g><g><g fill="#ddfbb0"><path d="m361.622 199.166-105.622-105.622-105.622 105.622 105.622 39.7z"/><path d="m150.378 351.278 105.622 105.622 105.622-105.622-105.622-39.7z"/></g><g fill="#a8eb58"><path d="m361.622 199.166-105.622-105.622-60.247 92.427 60.247 52.895z"/><path d="m195.753 364.473 60.247 92.427 105.622-105.622-105.622-39.7z"/></g><g fill="#73ca81"><path d="m256 95.105v145.322l105.622-41.261z"/><path d="m256 311.578v145.322l105.622-105.622z"/><path d="m256 168.451-105.622 30.715v152.112l105.622 30.715 105.622-30.715v-152.112z"/></g><path d="m195.753 185.971-45.375 13.195v152.112l45.375 13.195z" fill="#a8eb58"/><path d="m361.622 199.166-105.622-30.715v213.542l105.622-30.715z" fill="#599d8a"/><path d="m385.093 74.932-49.877 66.426 49.877 66.507 49.877-66.507z" fill="#fcf4c2"/><path d="m385.093 74.932-30.771 66.426 30.771 66.507 49.877-66.507z" fill="#f3d37a"/><path d="m385.093 74.932v132.933l49.877-66.507z" fill="#e89a39"/><path d="m126.907 342.35-49.877 66.507 49.877 66.655 49.877-66.655z" fill="#fcf4c2"/><path d="m126.907 342.35-30.771 66.507 30.771 66.655 49.877-66.655z" fill="#f3d37a"/><path d="m126.907 342.35v133.162l49.877-66.655z" fill="#e89a39"/></g><g fill="#fff"><path d="m52.809 242.246h1.524c6.754 0 12.226 5.472 12.226 12.226v1.528h8.715v-1.528c0-6.754 5.477-12.226 12.227-12.226h1.527v-8.715h-1.527c-6.75 0-12.227-5.477-12.227-12.227v-1.523h-8.715v1.523c0 6.75-5.472 12.227-12.226 12.227h-1.524zm0-8.715"/><path d="m132.269 97.9h1.524c6.754 0 12.226 5.472 12.226 12.226v1.528h8.715v-1.528c0-6.754 5.477-12.226 12.227-12.226h1.527v-8.715h-1.527c-6.75 0-12.227-5.477-12.227-12.227v-1.523h-8.715v1.523c0 6.75-5.472 12.227-12.226 12.227h-1.524zm0-8.715"/><path d="m410.031 337.334h1.524c6.754 0 12.226 5.472 12.226 12.226v1.528h8.715v-1.528c0-6.754 5.477-12.226 12.227-12.226h1.527v-8.715h-1.527c-6.75 0-12.227-5.477-12.227-12.227v-1.523h-8.715v1.523c0 6.75-5.472 12.227-12.226 12.227h-1.524zm0-8.715"/></g></g></svg>