<svg height="512" viewBox="0 0 128 128" width="512" xmlns="http://www.w3.org/2000/svg"><g><path d="m112.65 33.12-.97 1.76-47.68 86.62-47.68-86.62-.97-1.76.56-1.74 7.96-24.88h80.26l7.96 24.88z" fill="#3ba9fd"/><g fill="#0e8bce"><path d="m24.506 25.943a1.752 1.752 0 0 1 -1.667-2.284l2.538-7.929a1.75 1.75 0 1 1 3.333 1.07l-2.538 7.929a1.751 1.751 0 0 1 -1.666 1.214z"/><path d="m44.204 6.5-4.204 26.625 24 88.375 24-88.375-4.204-26.625z"/><path d="m112.65 33.12-.97 1.76h-95.36l-.97-1.76.56-1.74h96.18z"/></g></g></svg>